<?xml version="1.0" encoding="us-ascii" standalone="no"?><svg xmlns="http://www.w3.org/2000/svg" xmlns:xlink="http://www.w3.org/1999/xlink" contentStyleType="text/css" height="2090px" preserveAspectRatio="none" style="width:2521px;height:2090px;background:#FFFFFF;" version="1.1" viewBox="0 0 2521 2090" width="2521px" zoomAndPan="magnify"><defs/><g><rect fill="none" height="583.3281" style="stroke:#000000;stroke-width:1.5;" width="1005.5" x="359.5" y="115.3125"/><rect fill="none" height="85.0547" style="stroke:#000000;stroke-width:1.5;" width="1083.5" x="359.5" y="712.6406"/><rect fill="none" height="85.0547" style="stroke:#000000;stroke-width:1.5;" width="1237.5" x="359.5" y="811.6953"/><rect fill="none" height="85.0547" style="stroke:#000000;stroke-width:1.5;" width="1377" x="359.5" y="910.75"/><rect fill="none" height="740.0859" style="stroke:#000000;stroke-width:1.5;" width="1923" x="359.5" y="1009.8047"/><rect fill="none" height="227.4609" style="stroke:#000000;stroke-width:1.5;" width="612.5" x="1660" y="1485.0781"/><rect fill="none" height="61.7031" style="stroke:#000000;stroke-width:1.5;" width="185" x="1670" y="1577.1328"/><rect fill="none" height="273.1641" style="stroke:#000000;stroke-width:1.5;" width="2155.5" x="359.5" y="1763.8906"/><line style="stroke:#181818;stroke-width:0.5;stroke-dasharray:5.0,5.0;" x1="42" x2="42" y1="37.6094" y2="2054.0547"/><line style="stroke:#181818;stroke-width:0.5;stroke-dasharray:5.0,5.0;" x1="260" x2="260" y1="37.6094" y2="2054.0547"/><line style="stroke:#181818;stroke-width:0.5;stroke-dasharray:5.0,5.0;" x1="395.5" x2="395.5" y1="37.6094" y2="2054.0547"/><line style="stroke:#181818;stroke-width:0.5;stroke-dasharray:5.0,5.0;" x1="562.5" x2="562.5" y1="37.6094" y2="2054.0547"/><line style="stroke:#181818;stroke-width:0.5;stroke-dasharray:5.0,5.0;" x1="796" x2="796" y1="37.6094" y2="2054.0547"/><line style="stroke:#181818;stroke-width:0.5;stroke-dasharray:5.0,5.0;" x1="917" x2="917" y1="37.6094" y2="2054.0547"/><line style="stroke:#181818;stroke-width:0.5;stroke-dasharray:5.0,5.0;" x1="1059" x2="1059" y1="37.6094" y2="2054.0547"/><line style="stroke:#181818;stroke-width:0.5;stroke-dasharray:5.0,5.0;" x1="1177" x2="1177" y1="37.6094" y2="2054.0547"/><line style="stroke:#181818;stroke-width:0.5;stroke-dasharray:5.0,5.0;" x1="1314" x2="1314" y1="37.6094" y2="2054.0547"/><line style="stroke:#181818;stroke-width:0.5;stroke-dasharray:5.0,5.0;" x1="1468" x2="1468" y1="37.6094" y2="2054.0547"/><line style="stroke:#181818;stroke-width:0.5;stroke-dasharray:5.0,5.0;" x1="1607" x2="1607" y1="37.6094" y2="2054.0547"/><line style="stroke:#181818;stroke-width:0.5;stroke-dasharray:5.0,5.0;" x1="1743" x2="1743" y1="37.6094" y2="2054.0547"/><line style="stroke:#181818;stroke-width:0.5;stroke-dasharray:5.0,5.0;" x1="2084.5" x2="2084.5" y1="37.6094" y2="2054.0547"/><line style="stroke:#181818;stroke-width:0.5;stroke-dasharray:5.0,5.0;" x1="2235.5" x2="2235.5" y1="37.6094" y2="2054.0547"/><line style="stroke:#181818;stroke-width:0.5;stroke-dasharray:5.0,5.0;" x1="2382.5" x2="2382.5" y1="37.6094" y2="2054.0547"/><rect fill="#E2E2F0" height="31.6094" rx="2.5" ry="2.5" style="stroke:#181818;stroke-width:0.5;" width="75" x="5" y="5"/><text fill="#000000" font-family="sans-serif" font-size="14" lengthAdjust="spacing" textLength="61" x="12" y="26.5332">EventHub</text><rect fill="#E2E2F0" height="31.6094" rx="2.5" ry="2.5" style="stroke:#181818;stroke-width:0.5;" width="75" x="5" y="2053.0547"/><text fill="#000000" font-family="sans-serif" font-size="14" lengthAdjust="spacing" textLength="61" x="12" y="2074.5879">EventHub</text><rect fill="#E2E2F0" height="31.6094" rx="2.5" ry="2.5" style="stroke:#181818;stroke-width:0.5;" width="43" x="239" y="5"/><text fill="#000000" font-family="sans-serif" font-size="14" lengthAdjust="spacing" textLength="29" x="246" y="26.5332">argo</text><rect fill="#E2E2F0" height="31.6094" rx="2.5" ry="2.5" style="stroke:#181818;stroke-width:0.5;" width="43" x="239" y="2053.0547"/><text fill="#000000" font-family="sans-serif" font-size="14" lengthAdjust="spacing" textLength="29" x="246" y="2074.5879">argo</text><rect fill="#E2E2F0" height="31.6094" rx="2.5" ry="2.5" style="stroke:#181818;stroke-width:0.5;" width="52" x="369.5" y="5"/><text fill="#000000" font-family="sans-serif" font-size="14" lengthAdjust="spacing" textLength="38" x="376.5" y="26.5332">Ingest</text><rect fill="#E2E2F0" height="31.6094" rx="2.5" ry="2.5" style="stroke:#181818;stroke-width:0.5;" width="52" x="369.5" y="2053.0547"/><text fill="#000000" font-family="sans-serif" font-size="14" lengthAdjust="spacing" textLength="38" x="376.5" y="2074.5879">Ingest</text><rect fill="#E2E2F0" height="31.6094" rx="2.5" ry="2.5" style="stroke:#181818;stroke-width:0.5;" width="156" x="484.5" y="5"/><text fill="#000000" font-family="sans-serif" font-size="14" lengthAdjust="spacing" textLength="142" x="491.5" y="26.5332">BasicMetadataHandler</text><rect fill="#E2E2F0" height="31.6094" rx="2.5" ry="2.5" style="stroke:#181818;stroke-width:0.5;" width="156" x="484.5" y="2053.0547"/><text fill="#000000" font-family="sans-serif" font-size="14" lengthAdjust="spacing" textLength="142" x="491.5" y="2074.5879">BasicMetadataHandler</text><rect fill="#E2E2F0" height="31.6094" rx="2.5" ry="2.5" style="stroke:#181818;stroke-width:0.5;" width="71" x="761" y="5"/><text fill="#000000" font-family="sans-serif" font-size="14" lengthAdjust="spacing" textLength="57" x="768" y="26.5332">Keycloak</text><rect fill="#E2E2F0" height="31.6094" rx="2.5" ry="2.5" style="stroke:#181818;stroke-width:0.5;" width="71" x="761" y="2053.0547"/><text fill="#000000" font-family="sans-serif" font-size="14" lengthAdjust="spacing" textLength="57" x="768" y="2074.5879">Keycloak</text><rect fill="#E2E2F0" height="31.6094" rx="2.5" ry="2.5" style="stroke:#181818;stroke-width:0.5;" width="150" x="842" y="5"/><text fill="#000000" font-family="sans-serif" font-size="14" lengthAdjust="spacing" textLength="136" x="849" y="26.5332">Organizationmanager</text><rect fill="#E2E2F0" height="31.6094" rx="2.5" ry="2.5" style="stroke:#181818;stroke-width:0.5;" width="150" x="842" y="2053.0547"/><text fill="#000000" font-family="sans-serif" font-size="14" lengthAdjust="spacing" textLength="136" x="849" y="2074.5879">Organizationmanager</text><rect fill="#E2E2F0" height="31.6094" rx="2.5" ry="2.5" style="stroke:#181818;stroke-width:0.5;" width="115" x="1002" y="5"/><text fill="#000000" font-family="sans-serif" font-size="14" lengthAdjust="spacing" textLength="101" x="1009" y="26.5332">Accessmanager</text><rect fill="#E2E2F0" height="31.6094" rx="2.5" ry="2.5" style="stroke:#181818;stroke-width:0.5;" width="115" x="1002" y="2053.0547"/><text fill="#000000" font-family="sans-serif" font-size="14" lengthAdjust="spacing" textLength="101" x="1009" y="2074.5879">Accessmanager</text><rect fill="#E2E2F0" height="31.6094" rx="2.5" ry="2.5" style="stroke:#181818;stroke-width:0.5;" width="100" x="1127" y="5"/><text fill="#000000" font-family="sans-serif" font-size="14" lengthAdjust="spacing" textLength="86" x="1134" y="26.5332">AzureStorage</text><rect fill="#E2E2F0" height="31.6094" rx="2.5" ry="2.5" style="stroke:#181818;stroke-width:0.5;" width="100" x="1127" y="2053.0547"/><text fill="#000000" font-family="sans-serif" font-size="14" lengthAdjust="spacing" textLength="86" x="1134" y="2074.5879">AzureStorage</text><rect fill="#E2E2F0" height="31.6094" rx="2.5" ry="2.5" style="stroke:#181818;stroke-width:0.5;" width="154" x="1237" y="5"/><text fill="#000000" font-family="sans-serif" font-size="14" lengthAdjust="spacing" textLength="140" x="1244" y="26.5332">AnonymizationHandler</text><rect fill="#E2E2F0" height="31.6094" rx="2.5" ry="2.5" style="stroke:#181818;stroke-width:0.5;" width="154" x="1237" y="2053.0547"/><text fill="#000000" font-family="sans-serif" font-size="14" lengthAdjust="spacing" textLength="140" x="1244" y="2074.5879">AnonymizationHandler</text><rect fill="#E2E2F0" height="31.6094" rx="2.5" ry="2.5" style="stroke:#181818;stroke-width:0.5;" width="134" x="1401" y="5"/><text fill="#000000" font-family="sans-serif" font-size="14" lengthAdjust="spacing" textLength="120" x="1408" y="26.5332">EnrichmentHandler</text><rect fill="#E2E2F0" height="31.6094" rx="2.5" ry="2.5" style="stroke:#181818;stroke-width:0.5;" width="134" x="1401" y="2053.0547"/><text fill="#000000" font-family="sans-serif" font-size="14" lengthAdjust="spacing" textLength="120" x="1408" y="2074.5879">EnrichmentHandler</text><rect fill="#E2E2F0" height="31.6094" rx="2.5" ry="2.5" style="stroke:#181818;stroke-width:0.5;" width="125" x="1545" y="5"/><text fill="#000000" font-family="sans-serif" font-size="14" lengthAdjust="spacing" textLength="111" x="1552" y="26.5332">ValidationHandler</text><rect fill="#E2E2F0" height="31.6094" rx="2.5" ry="2.5" style="stroke:#181818;stroke-width:0.5;" width="125" x="1545" y="2053.0547"/><text fill="#000000" font-family="sans-serif" font-size="14" lengthAdjust="spacing" textLength="111" x="1552" y="2074.5879">ValidationHandler</text><rect fill="#E2E2F0" height="31.6094" rx="2.5" ry="2.5" style="stroke:#181818;stroke-width:0.5;" width="127" x="1680" y="5"/><text fill="#000000" font-family="sans-serif" font-size="14" lengthAdjust="spacing" textLength="113" x="1687" y="26.5332">MoveDataHandler</text><rect fill="#E2E2F0" height="31.6094" rx="2.5" ry="2.5" style="stroke:#181818;stroke-width:0.5;" width="127" x="1680" y="2053.0547"/><text fill="#000000" font-family="sans-serif" font-size="14" lengthAdjust="spacing" textLength="113" x="1687" y="2074.5879">MoveDataHandler</text><rect fill="#E2E2F0" height="31.6094" rx="2.5" ry="2.5" style="stroke:#181818;stroke-width:0.5;" width="128" x="2020.5" y="5"/><text fill="#000000" font-family="sans-serif" font-size="14" lengthAdjust="spacing" textLength="114" x="2027.5" y="26.5332">AzureBlobStorage</text><rect fill="#E2E2F0" height="31.6094" rx="2.5" ry="2.5" style="stroke:#181818;stroke-width:0.5;" width="128" x="2020.5" y="2053.0547"/><text fill="#000000" font-family="sans-serif" font-size="14" lengthAdjust="spacing" textLength="114" x="2027.5" y="2074.5879">AzureBlobStorage</text><rect fill="#E2E2F0" height="31.6094" rx="2.5" ry="2.5" style="stroke:#181818;stroke-width:0.5;" width="155" x="2158.5" y="5"/><text fill="#000000" font-family="sans-serif" font-size="14" lengthAdjust="spacing" textLength="141" x="2165.5" y="26.5332">MetadataIndexHandler</text><rect fill="#E2E2F0" height="31.6094" rx="2.5" ry="2.5" style="stroke:#181818;stroke-width:0.5;" width="155" x="2158.5" y="2053.0547"/><text fill="#000000" font-family="sans-serif" font-size="14" lengthAdjust="spacing" textLength="141" x="2165.5" y="2074.5879">MetadataIndexHandler</text><rect fill="#E2E2F0" height="31.6094" rx="2.5" ry="2.5" style="stroke:#181818;stroke-width:0.5;" width="73" x="2346.5" y="5"/><text fill="#000000" font-family="sans-serif" font-size="14" lengthAdjust="spacing" textLength="59" x="2353.5" y="26.5332">Metadata</text><rect fill="#E2E2F0" height="31.6094" rx="2.5" ry="2.5" style="stroke:#181818;stroke-width:0.5;" width="73" x="2346.5" y="2053.0547"/><text fill="#000000" font-family="sans-serif" font-size="14" lengthAdjust="spacing" textLength="59" x="2353.5" y="2074.5879">Metadata</text><polygon fill="#181818" points="248.5,65.9609,258.5,69.9609,248.5,73.9609,252.5,69.9609" style="stroke:#181818;stroke-width:1.0;"/><line style="stroke:#181818;stroke-width:1.0;" x1="42.5" x2="254.5" y1="69.9609" y2="69.9609"/><text fill="#000000" font-family="sans-serif" font-size="13" lengthAdjust="spacing" textLength="194" x="49.5" y="65.1045">"accessmanager-commit" [Kafka]</text><polygon fill="#181818" points="383.5,96.3125,393.5,100.3125,383.5,104.3125,387.5,100.3125" style="stroke:#181818;stroke-width:1.0;"/><line style="stroke:#181818;stroke-width:1.0;stroke-dasharray:2.0,2.0;" x1="260.5" x2="389.5" y1="100.3125" y2="100.3125"/><text fill="#000000" font-family="sans-serif" font-size="13" lengthAdjust="spacing" textLength="111" x="267.5" y="95.4561">start ingest [NATS]</text><path d="M359.5,115.3125 L561.5,115.3125 L561.5,123.6641 L551.5,133.6641 L359.5,133.6641 L359.5,115.3125 " fill="#EEEEEE" style="stroke:#000000;stroke-width:1.5;"/><rect fill="none" height="583.3281" style="stroke:#000000;stroke-width:1.5;" width="1005.5" x="359.5" y="115.3125"/><text fill="#000000" font-family="sans-serif" font-size="13" font-weight="bold" lengthAdjust="spacing" textLength="157" x="374.5" y="129.8076">basic-metadata-handling</text><polygon fill="#181818" points="550.5,152.0156,560.5,156.0156,550.5,160.0156,554.5,156.0156" style="stroke:#181818;stroke-width:1.0;"/><line style="stroke:#181818;stroke-width:1.0;stroke-dasharray:2.0,2.0;" x1="395.5" x2="556.5" y1="156.0156" y2="156.0156"/><text fill="#000000" font-family="sans-serif" font-size="13" lengthAdjust="spacing" textLength="143" x="402.5" y="151.1592">generate basic-metadata</text><polygon fill="#181818" points="784.5,182.3672,794.5,186.3672,784.5,190.3672,788.5,186.3672" style="stroke:#181818;stroke-width:1.0;"/><line style="stroke:#181818;stroke-width:1.0;" x1="562.5" x2="790.5" y1="186.3672" y2="186.3672"/><text fill="#000000" font-family="sans-serif" font-size="13" lengthAdjust="spacing" textLength="210" x="569.5" y="181.5107">request ServiceAccount-Token [http]</text><polygon fill="#181818" points="573.5,212.7188,563.5,216.7188,573.5,220.7188,569.5,216.7188" style="stroke:#181818;stroke-width:1.0;"/><line style="stroke:#181818;stroke-width:1.0;" x1="567.5" x2="795.5" y1="216.7188" y2="216.7188"/><text fill="#000000" font-family="sans-serif" font-size="13" lengthAdjust="spacing" textLength="92" x="579.5" y="211.8623">Response [http]</text><polygon fill="#181818" points="784.5,246.0703,794.5,250.0703,784.5,254.0703,788.5,250.0703" style="stroke:#181818;stroke-width:1.0;"/><line style="stroke:#181818;stroke-width:1.0;" x1="562.5" x2="790.5" y1="250.0703" y2="250.0703"/><text fill="#000000" font-family="sans-serif" font-size="13" lengthAdjust="spacing" textLength="147" x="569.5" y="245.2139">request User-Token [http]</text><path d="M801,229.7188 L801,255.7188 L976,255.7188 L976,239.7188 L966,229.7188 L801,229.7188 " fill="#FEFFDD" style="stroke:#181818;stroke-width:0.5;"/><path d="M966,229.7188 L966,239.7188 L976,239.7188 L966,229.7188 " fill="#FEFFDD" style="stroke:#181818;stroke-width:0.5;"/><text fill="#000000" font-family="sans-serif" font-size="13" lengthAdjust="spacing" textLength="154" x="807" y="248.2139">use ServiceAccount-Token</text><polygon fill="#181818" points="573.5,279.4219,563.5,283.4219,573.5,287.4219,569.5,283.4219" style="stroke:#181818;stroke-width:1.0;"/><line style="stroke:#181818;stroke-width:1.0;" x1="567.5" x2="795.5" y1="283.4219" y2="283.4219"/><text fill="#000000" font-family="sans-serif" font-size="13" lengthAdjust="spacing" textLength="92" x="579.5" y="278.5654">Response [http]</text><polygon fill="#181818" points="905,312.7734,915,316.7734,905,320.7734,909,316.7734" style="stroke:#181818;stroke-width:1.0;"/><line style="stroke:#181818;stroke-width:1.0;" x1="562.5" x2="911" y1="316.7734" y2="316.7734"/><text fill="#000000" font-family="sans-serif" font-size="13" lengthAdjust="spacing" textLength="226" x="569.5" y="311.917">should generate basic-metadata? [http]</text><path d="M922,296.4219 L922,322.4219 L1048,322.4219 L1048,306.4219 L1038,296.4219 L922,296.4219 " fill="#FEFFDD" style="stroke:#181818;stroke-width:0.5;"/><path d="M1038,296.4219 L1038,306.4219 L1048,306.4219 L1038,296.4219 " fill="#FEFFDD" style="stroke:#181818;stroke-width:0.5;"/><text fill="#000000" font-family="sans-serif" font-size="13" lengthAdjust="spacing" textLength="105" x="928" y="314.917">use of User-Token</text><polygon fill="#181818" points="573.5,346.125,563.5,350.125,573.5,354.125,569.5,350.125" style="stroke:#181818;stroke-width:1.0;"/><line style="stroke:#181818;stroke-width:1.0;" x1="567.5" x2="916" y1="350.125" y2="350.125"/><text fill="#000000" font-family="sans-serif" font-size="13" lengthAdjust="spacing" textLength="92" x="579.5" y="345.2686">Response [http]</text><polygon fill="#181818" points="1047.5,379.4766,1057.5,383.4766,1047.5,387.4766,1051.5,383.4766" style="stroke:#181818;stroke-width:1.0;"/><line style="stroke:#181818;stroke-width:1.0;" x1="562.5" x2="1053.5" y1="383.4766" y2="383.4766"/><text fill="#000000" font-family="sans-serif" font-size="13" lengthAdjust="spacing" textLength="169" x="569.5" y="378.6201">create read-SAS-Token [http]</text><path d="M1064,363.125 L1064,389.125 L1190,389.125 L1190,373.125 L1180,363.125 L1064,363.125 " fill="#FEFFDD" style="stroke:#181818;stroke-width:0.5;"/><path d="M1180,363.125 L1180,373.125 L1190,373.125 L1180,363.125 " fill="#FEFFDD" style="stroke:#181818;stroke-width:0.5;"/><text fill="#000000" font-family="sans-serif" font-size="13" lengthAdjust="spacing" textLength="105" x="1070" y="381.6201">use of User-Token</text><polygon fill="#181818" points="573.5,412.8281,563.5,416.8281,573.5,420.8281,569.5,416.8281" style="stroke:#181818;stroke-width:1.0;"/><line style="stroke:#181818;stroke-width:1.0;" x1="567.5" x2="1058.5" y1="416.8281" y2="416.8281"/><text fill="#000000" font-family="sans-serif" font-size="13" lengthAdjust="spacing" textLength="92" x="579.5" y="411.9717">Response [http]</text><polygon fill="#181818" points="1165,446.1797,1175,450.1797,1165,454.1797,1169,450.1797" style="stroke:#181818;stroke-width:1.0;"/><line style="stroke:#181818;stroke-width:1.0;" x1="562.5" x2="1171" y1="450.1797" y2="450.1797"/><text fill="#000000" font-family="sans-serif" font-size="13" lengthAdjust="spacing" textLength="85" x="569.5" y="445.3232">list files [https]</text><path d="M1182,429.8281 L1182,455.8281 L1337,455.8281 L1337,439.8281 L1327,429.8281 L1182,429.8281 " fill="#FEFFDD" style="stroke:#181818;stroke-width:0.5;"/><path d="M1327,429.8281 L1327,439.8281 L1337,439.8281 L1327,429.8281 " fill="#FEFFDD" style="stroke:#181818;stroke-width:0.5;"/><text fill="#000000" font-family="sans-serif" font-size="13" lengthAdjust="spacing" textLength="134" x="1188" y="448.3232">use of read-SAS-Token</text><polygon fill="#181818" points="573.5,479.5313,563.5,483.5313,573.5,487.5313,569.5,483.5313" style="stroke:#181818;stroke-width:1.0;"/><line style="stroke:#181818;stroke-width:1.0;" x1="567.5" x2="1176" y1="483.5313" y2="483.5313"/><text fill="#000000" font-family="sans-serif" font-size="13" lengthAdjust="spacing" textLength="99" x="579.5" y="478.6748">Response [https]</text><line style="stroke:#181818;stroke-width:1.0;" x1="562.5" x2="604.5" y1="513.8828" y2="513.8828"/><line style="stroke:#181818;stroke-width:1.0;" x1="604.5" x2="604.5" y1="513.8828" y2="526.8828"/><line style="stroke:#181818;stroke-width:1.0;" x1="563.5" x2="604.5" y1="526.8828" y2="526.8828"/><polygon fill="#181818" points="573.5,522.8828,563.5,526.8828,573.5,530.8828,569.5,526.8828" style="stroke:#181818;stroke-width:1.0;"/><text fill="#000000" font-family="sans-serif" font-size="13" lengthAdjust="spacing" textLength="143" x="569.5" y="509.0264">generate basic-metadata</text><polygon fill="#181818" points="1047.5,556.2344,1057.5,560.2344,1047.5,564.2344,1051.5,560.2344" style="stroke:#181818;stroke-width:1.0;"/><line style="stroke:#181818;stroke-width:1.0;" x1="562.5" x2="1053.5" y1="560.2344" y2="560.2344"/><text fill="#000000" font-family="sans-serif" font-size="13" lengthAdjust="spacing" textLength="182" x="569.5" y="555.3779">create upload-SAS-Token [http]</text><path d="M1064,539.8828 L1064,565.8828 L1190,565.8828 L1190,549.8828 L1180,539.8828 L1064,539.8828 " fill="#FEFFDD" style="stroke:#181818;stroke-width:0.5;"/><path d="M1180,539.8828 L1180,549.8828 L1190,549.8828 L1180,539.8828 " fill="#FEFFDD" style="stroke:#181818;stroke-width:0.5;"/><text fill="#000000" font-family="sans-serif" font-size="13" lengthAdjust="spacing" textLength="105" x="1070" y="558.3779">use of User-Token</text><polygon fill="#181818" points="573.5,589.5859,563.5,593.5859,573.5,597.5859,569.5,593.5859" style="stroke:#181818;stroke-width:1.0;"/><line style="stroke:#181818;stroke-width:1.0;" x1="567.5" x2="1058.5" y1="593.5859" y2="593.5859"/><text fill="#000000" font-family="sans-serif" font-size="13" lengthAdjust="spacing" textLength="92" x="579.5" y="588.7295">Response [http]</text><polygon fill="#181818" points="1165,622.9375,1175,626.9375,1165,630.9375,1169,626.9375" style="stroke:#181818;stroke-width:1.0;"/><line style="stroke:#181818;stroke-width:1.0;" x1="562.5" x2="1171" y1="626.9375" y2="626.9375"/><text fill="#000000" font-family="sans-serif" font-size="13" lengthAdjust="spacing" textLength="172" x="569.5" y="622.0811">upload basic-metadata [https]</text><path d="M1182,606.5859 L1182,632.5859 L1350,632.5859 L1350,616.5859 L1340,606.5859 L1182,606.5859 " fill="#FEFFDD" style="stroke:#181818;stroke-width:0.5;"/><path d="M1340,606.5859 L1340,616.5859 L1350,616.5859 L1340,606.5859 " fill="#FEFFDD" style="stroke:#181818;stroke-width:0.5;"/><text fill="#000000" font-family="sans-serif" font-size="13" lengthAdjust="spacing" textLength="147" x="1188" y="625.0811">use of upload-SAS-Token</text><polygon fill="#181818" points="573.5,656.2891,563.5,660.2891,573.5,664.2891,569.5,660.2891" style="stroke:#181818;stroke-width:1.0;"/><line style="stroke:#181818;stroke-width:1.0;" x1="567.5" x2="1176" y1="660.2891" y2="660.2891"/><text fill="#000000" font-family="sans-serif" font-size="13" lengthAdjust="spacing" textLength="99" x="579.5" y="655.4326">Response [https]</text><polygon fill="#181818" points="406.5,686.6406,396.5,690.6406,406.5,694.6406,402.5,690.6406" style="stroke:#181818;stroke-width:1.0;"/><line style="stroke:#181818;stroke-width:1.0;stroke-dasharray:2.0,2.0;" x1="400.5" x2="561.5" y1="690.6406" y2="690.6406"/><text fill="#000000" font-family="sans-serif" font-size="13" lengthAdjust="spacing" textLength="58" x="412.5" y="685.7842">Response</text><path d="M359.5,712.6406 L474.5,712.6406 L474.5,720.9922 L464.5,730.9922 L359.5,730.9922 L359.5,712.6406 " fill="#EEEEEE" style="stroke:#000000;stroke-width:1.5;"/><rect fill="none" height="85.0547" style="stroke:#000000;stroke-width:1.5;" width="1083.5" x="359.5" y="712.6406"/><text fill="#000000" font-family="sans-serif" font-size="13" font-weight="bold" lengthAdjust="spacing" textLength="70" x="374.5" y="727.1357">anonymize</text><polygon fill="#181818" points="1302,752.3438,1312,756.3438,1302,760.3438,1306,756.3438" style="stroke:#181818;stroke-width:1.0;"/><line style="stroke:#181818;stroke-width:1.0;stroke-dasharray:2.0,2.0;" x1="395.5" x2="1308" y1="756.3438" y2="756.3438"/><text fill="#000000" font-family="sans-serif" font-size="13" lengthAdjust="spacing" textLength="75" x="402.5" y="751.4873">to implement</text><path d="M1319,735.9922 L1319,761.9922 L1428,761.9922 L1428,745.9922 L1418,735.9922 L1319,735.9922 " fill="#FEFFDD" style="stroke:#181818;stroke-width:0.5;"/><path d="M1418,735.9922 L1418,745.9922 L1428,745.9922 L1418,735.9922 " fill="#FEFFDD" style="stroke:#181818;stroke-width:0.5;"/><text fill="#000000" font-family="sans-serif" font-size="13" lengthAdjust="spacing" textLength="88" x="1325" y="754.4873">unimplemented</text><polygon fill="#181818" points="406.5,785.6953,396.5,789.6953,406.5,793.6953,402.5,789.6953" style="stroke:#181818;stroke-width:1.0;"/><line style="stroke:#181818;stroke-width:1.0;stroke-dasharray:2.0,2.0;" x1="400.5" x2="1313" y1="789.6953" y2="789.6953"/><text fill="#000000" font-family="sans-serif" font-size="13" lengthAdjust="spacing" textLength="58" x="412.5" y="784.8389">Response</text><path d="M359.5,811.6953 L476.5,811.6953 L476.5,820.0469 L466.5,830.0469 L359.5,830.0469 L359.5,811.6953 " fill="#EEEEEE" style="stroke:#000000;stroke-width:1.5;"/><rect fill="none" height="85.0547" style="stroke:#000000;stroke-width:1.5;" width="1237.5" x="359.5" y="811.6953"/><text fill="#000000" font-family="sans-serif" font-size="13" font-weight="bold" lengthAdjust="spacing" textLength="72" x="374.5" y="826.1904">enrichment</text><polygon fill="#181818" points="1456,851.3984,1466,855.3984,1456,859.3984,1460,855.3984" style="stroke:#181818;stroke-width:1.0;"/><line style="stroke:#181818;stroke-width:1.0;stroke-dasharray:2.0,2.0;" x1="395.5" x2="1462" y1="855.3984" y2="855.3984"/><text fill="#000000" font-family="sans-serif" font-size="13" lengthAdjust="spacing" textLength="75" x="402.5" y="850.542">to implement</text><path d="M1473,835.0469 L1473,861.0469 L1582,861.0469 L1582,845.0469 L1572,835.0469 L1473,835.0469 " fill="#FEFFDD" style="stroke:#181818;stroke-width:0.5;"/><path d="M1572,835.0469 L1572,845.0469 L1582,845.0469 L1572,835.0469 " fill="#FEFFDD" style="stroke:#181818;stroke-width:0.5;"/><text fill="#000000" font-family="sans-serif" font-size="13" lengthAdjust="spacing" textLength="88" x="1479" y="853.542">unimplemented</text><polygon fill="#181818" points="406.5,884.75,396.5,888.75,406.5,892.75,402.5,888.75" style="stroke:#181818;stroke-width:1.0;"/><line style="stroke:#181818;stroke-width:1.0;stroke-dasharray:2.0,2.0;" x1="400.5" x2="1467" y1="888.75" y2="888.75"/><text fill="#000000" font-family="sans-serif" font-size="13" lengthAdjust="spacing" textLength="58" x="412.5" y="883.8936">Response</text><path d="M359.5,910.75 L455.5,910.75 L455.5,919.1016 L445.5,929.1016 L359.5,929.1016 L359.5,910.75 " fill="#EEEEEE" style="stroke:#000000;stroke-width:1.5;"/><rect fill="none" height="85.0547" style="stroke:#000000;stroke-width:1.5;" width="1377" x="359.5" y="910.75"/><text fill="#000000" font-family="sans-serif" font-size="13" font-weight="bold" lengthAdjust="spacing" textLength="51" x="374.5" y="925.2451">validate</text><polygon fill="#181818" points="1595.5,950.4531,1605.5,954.4531,1595.5,958.4531,1599.5,954.4531" style="stroke:#181818;stroke-width:1.0;"/><line style="stroke:#181818;stroke-width:1.0;stroke-dasharray:2.0,2.0;" x1="395.5" x2="1601.5" y1="954.4531" y2="954.4531"/><text fill="#000000" font-family="sans-serif" font-size="13" lengthAdjust="spacing" textLength="75" x="402.5" y="949.5967">to implement</text><path d="M1612,934.1016 L1612,960.1016 L1721,960.1016 L1721,944.1016 L1711,934.1016 L1612,934.1016 " fill="#FEFFDD" style="stroke:#181818;stroke-width:0.5;"/><path d="M1711,934.1016 L1711,944.1016 L1721,944.1016 L1711,934.1016 " fill="#FEFFDD" style="stroke:#181818;stroke-width:0.5;"/><text fill="#000000" font-family="sans-serif" font-size="13" lengthAdjust="spacing" textLength="88" x="1618" y="952.5967">unimplemented</text><polygon fill="#181818" points="406.5,983.8047,396.5,987.8047,406.5,991.8047,402.5,987.8047" style="stroke:#181818;stroke-width:1.0;"/><line style="stroke:#181818;stroke-width:1.0;stroke-dasharray:2.0,2.0;" x1="400.5" x2="1606.5" y1="987.8047" y2="987.8047"/><text fill="#000000" font-family="sans-serif" font-size="13" lengthAdjust="spacing" textLength="58" x="412.5" y="982.9482">Response</text><path d="M359.5,1009.8047 L471.5,1009.8047 L471.5,1018.1563 L461.5,1028.1563 L359.5,1028.1563 L359.5,1009.8047 " fill="#EEEEEE" style="stroke:#000000;stroke-width:1.5;"/><rect fill="none" height="740.0859" style="stroke:#000000;stroke-width:1.5;" width="1923" x="359.5" y="1009.8047"/><text fill="#000000" font-family="sans-serif" font-size="13" font-weight="bold" lengthAdjust="spacing" textLength="67" x="374.5" y="1024.2998">move-data</text><polygon fill="#181818" points="1731.5,1046.5078,1741.5,1050.5078,1731.5,1054.5078,1735.5,1050.5078" style="stroke:#181818;stroke-width:1.0;"/><line style="stroke:#181818;stroke-width:1.0;stroke-dasharray:2.0,2.0;" x1="395.5" x2="1737.5" y1="1050.5078" y2="1050.5078"/><text fill="#000000" font-family="sans-serif" font-size="13" lengthAdjust="spacing" textLength="59" x="402.5" y="1045.6514">move-data</text><polygon fill="#181818" points="807.5,1076.8594,797.5,1080.8594,807.5,1084.8594,803.5,1080.8594" style="stroke:#181818;stroke-width:1.0;"/><line style="stroke:#181818;stroke-width:1.0;" x1="801.5" x2="1742.5" y1="1080.8594" y2="1080.8594"/><text fill="#000000" font-family="sans-serif" font-size="13" lengthAdjust="spacing" textLength="176" x="813.5" y="1076.0029">request ServiceAccount-Token</text><polygon fill="#181818" points="1731.5,1107.2109,1741.5,1111.2109,1731.5,1115.2109,1735.5,1111.2109" style="stroke:#181818;stroke-width:1.0;"/><line style="stroke:#181818;stroke-width:1.0;" x1="796.5" x2="1737.5" y1="1111.2109" y2="1111.2109"/><text fill="#000000" font-family="sans-serif" font-size="13" lengthAdjust="spacing" textLength="58" x="803.5" y="1106.3545">Response</text><polygon fill="#181818" points="807.5,1140.5625,797.5,1144.5625,807.5,1148.5625,803.5,1144.5625" style="stroke:#181818;stroke-width:1.0;"/><line style="stroke:#181818;stroke-width:1.0;" x1="801.5" x2="1742.5" y1="1144.5625" y2="1144.5625"/><text fill="#000000" font-family="sans-serif" font-size="13" lengthAdjust="spacing" textLength="113" x="813.5" y="1139.7061">request User-Token</text><path d="M1748,1124.2109 L1748,1150.2109 L1923,1150.2109 L1923,1134.2109 L1913,1124.2109 L1748,1124.2109 " fill="#FEFFDD" style="stroke:#181818;stroke-width:0.5;"/><path d="M1913,1124.2109 L1913,1134.2109 L1923,1134.2109 L1913,1124.2109 " fill="#FEFFDD" style="stroke:#181818;stroke-width:0.5;"/><text fill="#000000" font-family="sans-serif" font-size="13" lengthAdjust="spacing" textLength="154" x="1754" y="1142.7061">use ServiceAccount-Token</text><polygon fill="#181818" points="1731.5,1173.9141,1741.5,1177.9141,1731.5,1181.9141,1735.5,1177.9141" style="stroke:#181818;stroke-width:1.0;"/><line style="stroke:#181818;stroke-width:1.0;" x1="796.5" x2="1737.5" y1="1177.9141" y2="1177.9141"/><text fill="#000000" font-family="sans-serif" font-size="13" lengthAdjust="spacing" textLength="58" x="803.5" y="1173.0576">Response</text><line style="stroke:#181818;stroke-width:1.0;" x1="1743.5" x2="1785.5" y1="1208.2656" y2="1208.2656"/><line style="stroke:#181818;stroke-width:1.0;" x1="1785.5" x2="1785.5" y1="1208.2656" y2="1221.2656"/><line style="stroke:#181818;stroke-width:1.0;" x1="1744.5" x2="1785.5" y1="1221.2656" y2="1221.2656"/><polygon fill="#181818" points="1754.5,1217.2656,1744.5,1221.2656,1754.5,1225.2656,1750.5,1221.2656" style="stroke:#181818;stroke-width:1.0;"/><text fill="#000000" font-family="sans-serif" font-size="13" lengthAdjust="spacing" textLength="327" x="1750.5" y="1203.4092">validate Request (e.g. source-container=target-container)</text><polygon fill="#181818" points="1070.5,1247.6172,1060.5,1251.6172,1070.5,1255.6172,1066.5,1251.6172" style="stroke:#181818;stroke-width:1.0;"/><line style="stroke:#181818;stroke-width:1.0;" x1="1064.5" x2="1742.5" y1="1251.6172" y2="1251.6172"/><text fill="#000000" font-family="sans-serif" font-size="13" lengthAdjust="spacing" textLength="179" x="1076.5" y="1246.7607">create delete-SAS-Token [http]</text><polygon fill="#181818" points="1731.5,1277.9688,1741.5,1281.9688,1731.5,1285.9688,1735.5,1281.9688" style="stroke:#181818;stroke-width:1.0;"/><line style="stroke:#181818;stroke-width:1.0;" x1="1059.5" x2="1737.5" y1="1281.9688" y2="1281.9688"/><text fill="#000000" font-family="sans-serif" font-size="13" lengthAdjust="spacing" textLength="58" x="1066.5" y="1277.1123">Response</text><polygon fill="#181818" points="1070.5,1308.3203,1060.5,1312.3203,1070.5,1316.3203,1066.5,1312.3203" style="stroke:#181818;stroke-width:1.0;"/><line style="stroke:#181818;stroke-width:1.0;" x1="1064.5" x2="1742.5" y1="1312.3203" y2="1312.3203"/><text fill="#000000" font-family="sans-serif" font-size="13" lengthAdjust="spacing" textLength="284" x="1076.5" y="1307.4639">create upload-SAS-Token (to main-storage) [http]</text><polygon fill="#181818" points="1731.5,1338.6719,1741.5,1342.6719,1731.5,1346.6719,1735.5,1342.6719" style="stroke:#181818;stroke-width:1.0;"/><line style="stroke:#181818;stroke-width:1.0;" x1="1059.5" x2="1737.5" y1="1342.6719" y2="1342.6719"/><text fill="#000000" font-family="sans-serif" font-size="13" lengthAdjust="spacing" textLength="58" x="1066.5" y="1337.8154">Response</text><polygon fill="#181818" points="1070.5,1369.0234,1060.5,1373.0234,1070.5,1377.0234,1066.5,1373.0234" style="stroke:#181818;stroke-width:1.0;"/><line style="stroke:#181818;stroke-width:1.0;" x1="1064.5" x2="1742.5" y1="1373.0234" y2="1373.0234"/><text fill="#000000" font-family="sans-serif" font-size="13" lengthAdjust="spacing" textLength="169" x="1076.5" y="1368.167">create read-SAS-Token [http]</text><polygon fill="#181818" points="1731.5,1399.375,1741.5,1403.375,1731.5,1407.375,1735.5,1403.375" style="stroke:#181818;stroke-width:1.0;"/><line style="stroke:#181818;stroke-width:1.0;" x1="1059.5" x2="1737.5" y1="1403.375" y2="1403.375"/><text fill="#000000" font-family="sans-serif" font-size="13" lengthAdjust="spacing" textLength="58" x="1066.5" y="1398.5186">Response</text><polygon fill="#181818" points="1188,1432.7266,1178,1436.7266,1188,1440.7266,1184,1436.7266" style="stroke:#181818;stroke-width:1.0;"/><line style="stroke:#181818;stroke-width:1.0;" x1="1182" x2="1742.5" y1="1436.7266" y2="1436.7266"/><text fill="#000000" font-family="sans-serif" font-size="13" lengthAdjust="spacing" textLength="85" x="1194" y="1431.8701">list files [https]</text><path d="M1748,1416.375 L1748,1442.375 L1903,1442.375 L1903,1426.375 L1893,1416.375 L1748,1416.375 " fill="#FEFFDD" style="stroke:#181818;stroke-width:0.5;"/><path d="M1893,1416.375 L1893,1426.375 L1903,1426.375 L1893,1416.375 " fill="#FEFFDD" style="stroke:#181818;stroke-width:0.5;"/><text fill="#000000" font-family="sans-serif" font-size="13" lengthAdjust="spacing" textLength="134" x="1754" y="1434.8701">use of read-SAS-Token</text><polygon fill="#181818" points="1731.5,1466.0781,1741.5,1470.0781,1731.5,1474.0781,1735.5,1470.0781" style="stroke:#181818;stroke-width:1.0;"/><line style="stroke:#181818;stroke-width:1.0;" x1="1177" x2="1737.5" y1="1470.0781" y2="1470.0781"/><text fill="#000000" font-family="sans-serif" font-size="13" lengthAdjust="spacing" textLength="99" x="1184" y="1465.2217">Response [https]</text><path d="M1660,1485.0781 L1733,1485.0781 L1733,1493.4297 L1723,1503.4297 L1660,1503.4297 L1660,1485.0781 " fill="#EEEEEE" style="stroke:#000000;stroke-width:1.5;"/><rect fill="none" height="227.4609" style="stroke:#000000;stroke-width:1.5;" width="612.5" x="1660" y="1485.0781"/><text fill="#000000" font-family="sans-serif" font-size="13" font-weight="bold" lengthAdjust="spacing" textLength="28" x="1675" y="1499.5732">loop</text><text fill="#000000" font-family="sans-serif" font-size="11" font-weight="bold" lengthAdjust="spacing" textLength="71" x="1748" y="1498.4971">[for f in files]</text><polygon fill="#181818" points="2072.5,1524.7813,2082.5,1528.7813,2072.5,1532.7813,2076.5,1528.7813" style="stroke:#181818;stroke-width:1.0;"/><line style="stroke:#181818;stroke-width:1.0;" x1="1743.5" x2="2078.5" y1="1528.7813" y2="1528.7813"/><text fill="#000000" font-family="sans-serif" font-size="13" lengthAdjust="spacing" textLength="89" x="1750.5" y="1523.9248">copy file [https]</text><path d="M2089,1508.4297 L2089,1534.4297 L2257,1534.4297 L2257,1518.4297 L2247,1508.4297 L2089,1508.4297 " fill="#FEFFDD" style="stroke:#181818;stroke-width:0.5;"/><path d="M2247,1508.4297 L2247,1518.4297 L2257,1518.4297 L2247,1508.4297 " fill="#FEFFDD" style="stroke:#181818;stroke-width:0.5;"/><text fill="#000000" font-family="sans-serif" font-size="13" lengthAdjust="spacing" textLength="147" x="2095" y="1526.9248">use of upload-SAS-Token</text><polygon fill="#181818" points="1754.5,1558.1328,1744.5,1562.1328,1754.5,1566.1328,1750.5,1562.1328" style="stroke:#181818;stroke-width:1.0;"/><line style="stroke:#181818;stroke-width:1.0;" x1="1748.5" x2="2083.5" y1="1562.1328" y2="1562.1328"/><text fill="#000000" font-family="sans-serif" font-size="13" lengthAdjust="spacing" textLength="99" x="1760.5" y="1557.2764">Response [https]</text><path d="M1670,1577.1328 L1743,1577.1328 L1743,1585.4844 L1733,1595.4844 L1670,1595.4844 L1670,1577.1328 " fill="#EEEEEE" style="stroke:#000000;stroke-width:1.5;"/><rect fill="none" height="61.7031" style="stroke:#000000;stroke-width:1.5;" width="185" x="1670" y="1577.1328"/><text fill="#000000" font-family="sans-serif" font-size="13" font-weight="bold" lengthAdjust="spacing" textLength="28" x="1685" y="1591.6279">loop</text><text fill="#000000" font-family="sans-serif" font-size="11" font-weight="bold" lengthAdjust="spacing" textLength="92" x="1758" y="1590.5518">[while 'pending']</text><line style="stroke:#181818;stroke-width:1.0;" x1="1743.5" x2="1785.5" y1="1617.8359" y2="1617.8359"/><line style="stroke:#181818;stroke-width:1.0;" x1="1785.5" x2="1785.5" y1="1617.8359" y2="1630.8359"/><line style="stroke:#181818;stroke-width:1.0;" x1="1744.5" x2="1785.5" y1="1630.8359" y2="1630.8359"/><polygon fill="#181818" points="1754.5,1626.8359,1744.5,1630.8359,1754.5,1634.8359,1750.5,1630.8359" style="stroke:#181818;stroke-width:1.0;"/><text fill="#000000" font-family="sans-serif" font-size="13" lengthAdjust="spacing" textLength="23" x="1750.5" y="1612.9795">wait</text><polygon fill="#181818" points="2072.5,1667.1875,2082.5,1671.1875,2072.5,1675.1875,2076.5,1671.1875" style="stroke:#181818;stroke-width:1.0;"/><line style="stroke:#181818;stroke-width:1.0;" x1="1743.5" x2="2078.5" y1="1671.1875" y2="1671.1875"/><text fill="#000000" font-family="sans-serif" font-size="13" lengthAdjust="spacing" textLength="96" x="1750.5" y="1666.3311">delete file [https]</text><path d="M2089,1650.8359 L2089,1676.8359 L2254,1676.8359 L2254,1660.8359 L2244,1650.8359 L2089,1650.8359 " fill="#FEFFDD" style="stroke:#181818;stroke-width:0.5;"/><path d="M2244,1650.8359 L2244,1660.8359 L2254,1660.8359 L2244,1650.8359 " fill="#FEFFDD" style="stroke:#181818;stroke-width:0.5;"/><text fill="#000000" font-family="sans-serif" font-size="13" lengthAdjust="spacing" textLength="144" x="2095" y="1669.3311">use of delete-SAS-Token</text><polygon fill="#181818" points="1754.5,1700.5391,1744.5,1704.5391,1754.5,1708.5391,1750.5,1704.5391" style="stroke:#181818;stroke-width:1.0;"/><line style="stroke:#181818;stroke-width:1.0;" x1="1748.5" x2="2083.5" y1="1704.5391" y2="1704.5391"/><text fill="#000000" font-family="sans-serif" font-size="13" lengthAdjust="spacing" textLength="99" x="1760.5" y="1699.6826">Response [https]</text><polygon fill="#181818" points="406.5,1737.8906,396.5,1741.8906,406.5,1745.8906,402.5,1741.8906" style="stroke:#181818;stroke-width:1.0;"/><line style="stroke:#181818;stroke-width:1.0;stroke-dasharray:2.0,2.0;" x1="400.5" x2="1742.5" y1="1741.8906" y2="1741.8906"/><text fill="#000000" font-family="sans-serif" font-size="13" lengthAdjust="spacing" textLength="58" x="412.5" y="1737.0342">Response</text><path d="M359.5,1763.8906 L504.5,1763.8906 L504.5,1772.2422 L494.5,1782.2422 L359.5,1782.2422 L359.5,1763.8906 " fill="#EEEEEE" style="stroke:#000000;stroke-width:1.5;"/><rect fill="none" height="273.1641" style="stroke:#000000;stroke-width:1.5;" width="2155.5" x="359.5" y="1763.8906"/><text fill="#000000" font-family="sans-serif" font-size="13" font-weight="bold" lengthAdjust="spacing" textLength="100" x="374.5" y="1778.3857">metadata-index</text><polygon fill="#181818" points="2224,1800.5938,2234,1804.5938,2224,1808.5938,2228,1804.5938" style="stroke:#181818;stroke-width:1.0;"/><line style="stroke:#181818;stroke-width:1.0;stroke-dasharray:2.0,2.0;" x1="395.5" x2="2230" y1="1804.5938" y2="1804.5938"/><text fill="#000000" font-family="sans-serif" font-size="13" lengthAdjust="spacing" textLength="89" x="402.5" y="1799.7373">index metadata</text><polygon fill="#181818" points="807.5,1830.9453,797.5,1834.9453,807.5,1838.9453,803.5,1834.9453" style="stroke:#181818;stroke-width:1.0;"/><line style="stroke:#181818;stroke-width:1.0;" x1="801.5" x2="2235" y1="1834.9453" y2="1834.9453"/><text fill="#000000" font-family="sans-serif" font-size="13" lengthAdjust="spacing" textLength="210" x="813.5" y="1830.0889">request ServiceAccount-Token [http]</text><polygon fill="#181818" points="2224,1861.2969,2234,1865.2969,2224,1869.2969,2228,1865.2969" style="stroke:#181818;stroke-width:1.0;"/><line style="stroke:#181818;stroke-width:1.0;" x1="796.5" x2="2230" y1="1865.2969" y2="1865.2969"/><text fill="#000000" font-family="sans-serif" font-size="13" lengthAdjust="spacing" textLength="92" x="803.5" y="1860.4404">Response [http]</text><polygon fill="#181818" points="807.5,1894.6484,797.5,1898.6484,807.5,1902.6484,803.5,1898.6484" style="stroke:#181818;stroke-width:1.0;"/><line style="stroke:#181818;stroke-width:1.0;" x1="801.5" x2="2235" y1="1898.6484" y2="1898.6484"/><text fill="#000000" font-family="sans-serif" font-size="13" lengthAdjust="spacing" textLength="147" x="813.5" y="1893.792">request User-Token [http]</text><path d="M2241,1878.2969 L2241,1904.2969 L2416,1904.2969 L2416,1888.2969 L2406,1878.2969 L2241,1878.2969 " fill="#FEFFDD" style="stroke:#181818;stroke-width:0.5;"/><path d="M2406,1878.2969 L2406,1888.2969 L2416,1888.2969 L2406,1878.2969 " fill="#FEFFDD" style="stroke:#181818;stroke-width:0.5;"/><text fill="#000000" font-family="sans-serif" font-size="13" lengthAdjust="spacing" textLength="154" x="2247" y="1896.792">use ServiceAccount-Token</text><polygon fill="#181818" points="2224,1928,2234,1932,2224,1936,2228,1932" style="stroke:#181818;stroke-width:1.0;"/><line style="stroke:#181818;stroke-width:1.0;" x1="796.5" x2="2230" y1="1932" y2="1932"/><text fill="#000000" font-family="sans-serif" font-size="13" lengthAdjust="spacing" textLength="92" x="803.5" y="1927.1436">Response [http]</text><polygon fill="#181818" points="2371,1961.3516,2381,1965.3516,2371,1969.3516,2375,1965.3516" style="stroke:#181818;stroke-width:1.0;"/><line style="stroke:#181818;stroke-width:1.0;" x1="2236" x2="2377" y1="1965.3516" y2="1965.3516"/><text fill="#000000" font-family="sans-serif" font-size="13" lengthAdjust="spacing" textLength="123" x="2243" y="1960.4951">index metadata [http]</text><path d="M2388,1945 L2388,1971 L2500,1971 L2500,1955 L2490,1945 L2388,1945 " fill="#FEFFDD" style="stroke:#181818;stroke-width:0.5;"/><path d="M2490,1945 L2490,1955 L2500,1955 L2490,1945 " fill="#FEFFDD" style="stroke:#181818;stroke-width:0.5;"/><text fill="#000000" font-family="sans-serif" font-size="13" lengthAdjust="spacing" textLength="91" x="2394" y="1963.4951">use User-Token</text><polygon fill="#181818" points="2247,1994.7031,2237,1998.7031,2247,2002.7031,2243,1998.7031" style="stroke:#181818;stroke-width:1.0;"/><line style="stroke:#181818;stroke-width:1.0;" x1="2241" x2="2382" y1="1998.7031" y2="1998.7031"/><text fill="#000000" font-family="sans-serif" font-size="13" lengthAdjust="spacing" textLength="92" x="2253" y="1993.8467">Response [http]</text><polygon fill="#181818" points="406.5,2025.0547,396.5,2029.0547,406.5,2033.0547,402.5,2029.0547" style="stroke:#181818;stroke-width:1.0;"/><line style="stroke:#181818;stroke-width:1.0;stroke-dasharray:2.0,2.0;" x1="400.5" x2="2235" y1="2029.0547" y2="2029.0547"/><text fill="#000000" font-family="sans-serif" font-size="13" lengthAdjust="spacing" textLength="58" x="412.5" y="2024.1982">Response</text><!--SRC=[pPVDRjim383lUGgXbxO7zm4CT4EA5MXHj0EMRfSW1qLcR26sv4bokkJfHzknuj_OJj9XEHY8n9-Fb4HAZniGvYbP4kSBeSgNBhcYZ87M4HNK1-Km6KNSN97v2rsjwMAI2X47fP-53zguH1kg3E7PFp9_cxxF5fE9hsGIaoNLd3aH6EfHGvs02Yz4mGd1NwwUMNf8nLxtKa-f42YN-210KGCrAvbocqOQmGjiMIZfsYKAVYUf_Hce3MSmPKmcmZZlSWs2p0DZuaLcgT0WdHm_GCTIQ2Xh3VV_KsCE6rw5nBWKzmFCNuAcsoXFn3lAzrtvLF0TDLoA_GBZ0WOo2RskV7yznYrNfG0pYHOF5sAVbhUbIvY251Q_dZERplfpt6IjMBmKvIvHC3DIeKsNX1otm8g7e7DbtObMZIF7AvaQIgTxyCOTjHFM8ubnk_x7AvBprGBjMvnwK9-qFAMYMgXDG7X5DQL2Yct4Tr2ldzFzH7Reh6SZ2O_Y428iyCt0X9q3Bm-dnKWl4WZ5MM0z79WUxSIfF0qBlJ0R6dBCPpqzl_BXCrBJiD2B4iaDEBPR7LXUSVnRUNjK1MlJmpjQerSq75dAmNvgH_EabjMDqSNHq2XM5LLphXkuy- -8bebYWBSJOIZ7wdMFjn0Vp67WjjD5U-7o80G3xOMhKPR6npMmMjxWreoGtz5vORdz9nZTJVGIBZ-l8tR2LAjjA6LCLbAH5LvJS-VP-37WXr0kBJIJyJRJgp2FQHQMlcHtH0GsYeyWfRYEiTRWHVhQJWuzJH-K6wkK5QnHYSWFoU1KrC_KcQceC3Tu-qfoyGhXmeC_zRgydtnEvon09aag3uysmVCV7ktksnuU8o4k-FeOndYKhnYlP_OOMwqB5IR6PQqTg6F3_0K0]--></g></svg>