<?xml version="1.0" encoding="us-ascii" standalone="no"?><svg xmlns="http://www.w3.org/2000/svg" xmlns:xlink="http://www.w3.org/1999/xlink" contentStyleType="text/css" height="754px" preserveAspectRatio="none" style="width:993px;height:754px;background:#FFFFFF;" version="1.1" viewBox="0 0 993 754" width="993px" zoomAndPan="magnify"><defs/><g><rect fill="none" height="408.5703" style="stroke:#000000;stroke-width:1.5;" width="793.5" x="194" y="216.6641"/><line style="stroke:#181818;stroke-width:0.5;stroke-dasharray:5.0,5.0;" x1="26" x2="26" y1="82.6094" y2="672.5859"/><line style="stroke:#181818;stroke-width:0.5;stroke-dasharray:5.0,5.0;" x1="279" x2="279" y1="82.6094" y2="672.5859"/><line style="stroke:#181818;stroke-width:0.5;stroke-dasharray:5.0,5.0;" x1="478" x2="478" y1="82.6094" y2="672.5859"/><line style="stroke:#181818;stroke-width:0.5;stroke-dasharray:5.0,5.0;" x1="607" x2="607" y1="82.6094" y2="672.5859"/><line style="stroke:#181818;stroke-width:0.5;stroke-dasharray:5.0,5.0;" x1="728.5" x2="728.5" y1="82.6094" y2="672.5859"/><line style="stroke:#181818;stroke-width:0.5;stroke-dasharray:5.0,5.0;" x1="820.5" x2="820.5" y1="82.6094" y2="672.5859"/><line style="stroke:#181818;stroke-width:0.5;stroke-dasharray:5.0,5.0;" x1="926.5" x2="926.5" y1="82.6094" y2="672.5859"/><text fill="#000000" font-family="sans-serif" font-size="14" lengthAdjust="spacing" textLength="36" x="5" y="79.5332">Client</text><ellipse cx="26" cy="13.5" fill="#E2E2F0" rx="8" ry="8" style="stroke:#181818;stroke-width:0.5;"/><path d="M26,21.5 L26,48.5 M13,29.5 L39,29.5 M26,48.5 L13,63.5 M26,48.5 L39,63.5 " fill="none" style="stroke:#181818;stroke-width:0.5;"/><text fill="#000000" font-family="sans-serif" font-size="14" lengthAdjust="spacing" textLength="36" x="5" y="686.1191">Client</text><ellipse cx="26" cy="697.6953" fill="#E2E2F0" rx="8" ry="8" style="stroke:#181818;stroke-width:0.5;"/><path d="M26,705.6953 L26,732.6953 M13,713.6953 L39,713.6953 M26,732.6953 L13,747.6953 M26,732.6953 L39,747.6953 " fill="none" style="stroke:#181818;stroke-width:0.5;"/><rect fill="#E2E2F0" height="31.6094" rx="2.5" ry="2.5" style="stroke:#181818;stroke-width:0.5;" width="150" x="204" y="50"/><text fill="#000000" font-family="sans-serif" font-size="14" lengthAdjust="spacing" textLength="136" x="211" y="71.5332">Organizationmanager</text><rect fill="#E2E2F0" height="31.6094" rx="2.5" ry="2.5" style="stroke:#181818;stroke-width:0.5;" width="150" x="204" y="671.5859"/><text fill="#000000" font-family="sans-serif" font-size="14" lengthAdjust="spacing" textLength="136" x="211" y="693.1191">Organizationmanager</text><rect fill="#E2E2F0" height="31.6094" rx="2.5" ry="2.5" style="stroke:#181818;stroke-width:0.5;" width="118" x="419" y="50"/><text fill="#000000" font-family="sans-serif" font-size="14" lengthAdjust="spacing" textLength="104" x="426" y="71.5332">Metadataservice</text><rect fill="#E2E2F0" height="31.6094" rx="2.5" ry="2.5" style="stroke:#181818;stroke-width:0.5;" width="118" x="419" y="671.5859"/><text fill="#000000" font-family="sans-serif" font-size="14" lengthAdjust="spacing" textLength="104" x="426" y="693.1191">Metadataservice</text><rect fill="#E2E2F0" height="31.6094" rx="2.5" ry="2.5" style="stroke:#181818;stroke-width:0.5;" width="120" x="547" y="50"/><text fill="#000000" font-family="sans-serif" font-size="14" lengthAdjust="spacing" textLength="106" x="554" y="71.5332">Storagemanager</text><rect fill="#E2E2F0" height="31.6094" rx="2.5" ry="2.5" style="stroke:#181818;stroke-width:0.5;" width="120" x="547" y="671.5859"/><text fill="#000000" font-family="sans-serif" font-size="14" lengthAdjust="spacing" textLength="106" x="554" y="693.1191">Storagemanager</text><rect fill="#E2E2F0" height="31.6094" rx="2.5" ry="2.5" style="stroke:#181818;stroke-width:0.5;" width="71" x="693.5" y="50"/><text fill="#000000" font-family="sans-serif" font-size="14" lengthAdjust="spacing" textLength="57" x="700.5" y="71.5332">Keycloak</text><rect fill="#E2E2F0" height="31.6094" rx="2.5" ry="2.5" style="stroke:#181818;stroke-width:0.5;" width="71" x="693.5" y="671.5859"/><text fill="#000000" font-family="sans-serif" font-size="14" lengthAdjust="spacing" textLength="57" x="700.5" y="693.1191">Keycloak</text><rect fill="#E2E2F0" height="31.6094" rx="2.5" ry="2.5" style="stroke:#181818;stroke-width:0.5;" width="92" x="774.5" y="50"/><text fill="#000000" font-family="sans-serif" font-size="14" lengthAdjust="spacing" textLength="78" x="781.5" y="71.5332">Opensearch</text><rect fill="#E2E2F0" height="31.6094" rx="2.5" ry="2.5" style="stroke:#181818;stroke-width:0.5;" width="92" x="774.5" y="671.5859"/><text fill="#000000" font-family="sans-serif" font-size="14" lengthAdjust="spacing" textLength="78" x="781.5" y="693.1191">Opensearch</text><rect fill="#E2E2F0" height="31.6094" rx="2.5" ry="2.5" style="stroke:#181818;stroke-width:0.5;" width="101" x="876.5" y="50"/><text fill="#000000" font-family="sans-serif" font-size="14" lengthAdjust="spacing" textLength="87" x="883.5" y="71.5332">CloudStorage</text><rect fill="#E2E2F0" height="31.6094" rx="2.5" ry="2.5" style="stroke:#181818;stroke-width:0.5;" width="101" x="876.5" y="671.5859"/><text fill="#000000" font-family="sans-serif" font-size="14" lengthAdjust="spacing" textLength="87" x="883.5" y="693.1191">CloudStorage</text><polygon fill="#181818" points="267,110.9609,277,114.9609,267,118.9609,271,114.9609" style="stroke:#181818;stroke-width:1.0;"/><line style="stroke:#181818;stroke-width:1.0;" x1="26" x2="273" y1="114.9609" y2="114.9609"/><text fill="#000000" font-family="sans-serif" font-size="13" lengthAdjust="spacing" textLength="229" x="33" y="110.1045">CRUD Organization / Space [http/https]</text><line style="stroke:#181818;stroke-width:1.0;stroke-dasharray:2.0,2.0;" x1="279" x2="321" y1="145.3125" y2="145.3125"/><line style="stroke:#181818;stroke-width:1.0;stroke-dasharray:2.0,2.0;" x1="321" x2="321" y1="145.3125" y2="158.3125"/><line style="stroke:#181818;stroke-width:1.0;stroke-dasharray:2.0,2.0;" x1="280" x2="321" y1="158.3125" y2="158.3125"/><polygon fill="#181818" points="290,154.3125,280,158.3125,290,162.3125,286,158.3125" style="stroke:#181818;stroke-width:1.0;"/><text fill="#000000" font-family="sans-serif" font-size="13" lengthAdjust="spacing" textLength="99" x="286" y="140.4561">Validate Request</text><line style="stroke:#181818;stroke-width:1.0;stroke-dasharray:2.0,2.0;" x1="279" x2="321" y1="188.6641" y2="188.6641"/><line style="stroke:#181818;stroke-width:1.0;stroke-dasharray:2.0,2.0;" x1="321" x2="321" y1="188.6641" y2="201.6641"/><line style="stroke:#181818;stroke-width:1.0;stroke-dasharray:2.0,2.0;" x1="280" x2="321" y1="201.6641" y2="201.6641"/><polygon fill="#181818" points="290,197.6641,280,201.6641,290,205.6641,286,201.6641" style="stroke:#181818;stroke-width:1.0;"/><text fill="#000000" font-family="sans-serif" font-size="13" lengthAdjust="spacing" textLength="77" x="286" y="183.8076">persist Entity</text><path d="M194,216.6641 L330,216.6641 L330,225.0156 L320,235.0156 L194,235.0156 L194,216.6641 " fill="#EEEEEE" style="stroke:#000000;stroke-width:1.5;"/><rect fill="none" height="408.5703" style="stroke:#000000;stroke-width:1.5;" width="793.5" x="194" y="216.6641"/><text fill="#000000" font-family="sans-serif" font-size="13" font-weight="bold" lengthAdjust="spacing" textLength="87" x="209" y="231.1592">send requests</text><text fill="#000000" font-family="sans-serif" font-size="11" font-weight="bold" lengthAdjust="spacing" textLength="198" x="345" y="230.083">[send in parallel and wait for return]</text><polygon fill="#181818" points="466,253.3672,476,257.3672,466,261.3672,470,257.3672" style="stroke:#181818;stroke-width:1.0;"/><line style="stroke:#181818;stroke-width:1.0;" x1="279" x2="472" y1="257.3672" y2="257.3672"/><text fill="#000000" font-family="sans-serif" font-size="13" lengthAdjust="spacing" textLength="175" x="286" y="252.5107">CRUD metadata context [http]</text><polygon fill="#181818" points="595,283.7188,605,287.7188,595,291.7188,599,287.7188" style="stroke:#181818;stroke-width:1.0;"/><line style="stroke:#181818;stroke-width:1.0;" x1="279" x2="601" y1="287.7188" y2="287.7188"/><text fill="#000000" font-family="sans-serif" font-size="13" lengthAdjust="spacing" textLength="164" x="286" y="282.8623">CRUD storage context [http]</text><polygon fill="#181818" points="717,314.0703,727,318.0703,717,322.0703,721,318.0703" style="stroke:#181818;stroke-width:1.0;"/><line style="stroke:#181818;stroke-width:1.0;" x1="279" x2="723" y1="318.0703" y2="318.0703"/><text fill="#000000" font-family="sans-serif" font-size="13" lengthAdjust="spacing" textLength="102" x="286" y="313.2139">CRUD roles [http]</text><line style="stroke:#181818;stroke-width:1.0;stroke-dasharray:2.0,2.0;" x1="478" x2="520" y1="348.4219" y2="348.4219"/><line style="stroke:#181818;stroke-width:1.0;stroke-dasharray:2.0,2.0;" x1="520" x2="520" y1="348.4219" y2="361.4219"/><line style="stroke:#181818;stroke-width:1.0;stroke-dasharray:2.0,2.0;" x1="479" x2="520" y1="361.4219" y2="361.4219"/><polygon fill="#181818" points="489,357.4219,479,361.4219,489,365.4219,485,361.4219" style="stroke:#181818;stroke-width:1.0;"/><text fill="#000000" font-family="sans-serif" font-size="13" lengthAdjust="spacing" textLength="74" x="485" y="343.5654">context logic</text><polygon fill="#181818" points="808.5,387.7734,818.5,391.7734,808.5,395.7734,812.5,391.7734" style="stroke:#181818;stroke-width:1.0;"/><line style="stroke:#181818;stroke-width:1.0;" x1="478" x2="814.5" y1="391.7734" y2="391.7734"/><text fill="#000000" font-family="sans-serif" font-size="13" lengthAdjust="spacing" textLength="246" x="485" y="386.917">CRUD tenants/roles/rolesmapping/... [http]</text><polygon fill="#181818" points="489,418.125,479,422.125,489,426.125,485,422.125" style="stroke:#181818;stroke-width:1.0;"/><line style="stroke:#181818;stroke-width:1.0;" x1="483" x2="819.5" y1="422.125" y2="422.125"/><text fill="#000000" font-family="sans-serif" font-size="13" lengthAdjust="spacing" textLength="92" x="495" y="417.2686">Response [http]</text><line style="stroke:#181818;stroke-width:1.0;stroke-dasharray:2.0,2.0;" x1="607" x2="649" y1="452.4766" y2="452.4766"/><line style="stroke:#181818;stroke-width:1.0;stroke-dasharray:2.0,2.0;" x1="649" x2="649" y1="452.4766" y2="465.4766"/><line style="stroke:#181818;stroke-width:1.0;stroke-dasharray:2.0,2.0;" x1="608" x2="649" y1="465.4766" y2="465.4766"/><polygon fill="#181818" points="618,461.4766,608,465.4766,618,469.4766,614,465.4766" style="stroke:#181818;stroke-width:1.0;"/><text fill="#000000" font-family="sans-serif" font-size="13" lengthAdjust="spacing" textLength="108" x="614" y="447.6201">context logic [http]</text><polygon fill="#181818" points="915,491.8281,925,495.8281,915,499.8281,919,495.8281" style="stroke:#181818;stroke-width:1.0;"/><line style="stroke:#181818;stroke-width:1.0;" x1="607" x2="921" y1="495.8281" y2="495.8281"/><text fill="#000000" font-family="sans-serif" font-size="13" lengthAdjust="spacing" textLength="117" x="614" y="490.9717">CRUD storage [http]</text><polygon fill="#181818" points="618,522.1797,608,526.1797,618,530.1797,614,526.1797" style="stroke:#181818;stroke-width:1.0;"/><line style="stroke:#181818;stroke-width:1.0;" x1="612" x2="926" y1="526.1797" y2="526.1797"/><text fill="#000000" font-family="sans-serif" font-size="13" lengthAdjust="spacing" textLength="92" x="624" y="521.3232">Response [http]</text><polygon fill="#181818" points="290,552.5313,280,556.5313,290,560.5313,286,556.5313" style="stroke:#181818;stroke-width:1.0;"/><line style="stroke:#181818;stroke-width:1.0;" x1="284" x2="728" y1="556.5313" y2="556.5313"/><text fill="#000000" font-family="sans-serif" font-size="13" lengthAdjust="spacing" textLength="92" x="296" y="551.6748">Response [http]</text><polygon fill="#181818" points="290,582.8828,280,586.8828,290,590.8828,286,586.8828" style="stroke:#181818;stroke-width:1.0;"/><line style="stroke:#181818;stroke-width:1.0;" x1="284" x2="606" y1="586.8828" y2="586.8828"/><text fill="#000000" font-family="sans-serif" font-size="13" lengthAdjust="spacing" textLength="92" x="296" y="582.0264">Response [http]</text><polygon fill="#181818" points="290,613.2344,280,617.2344,290,621.2344,286,617.2344" style="stroke:#181818;stroke-width:1.0;"/><line style="stroke:#181818;stroke-width:1.0;" x1="284" x2="477" y1="617.2344" y2="617.2344"/><text fill="#000000" font-family="sans-serif" font-size="13" lengthAdjust="spacing" textLength="92" x="296" y="612.3779">Response [http]</text><polygon fill="#181818" points="37,650.5859,27,654.5859,37,658.5859,33,654.5859" style="stroke:#181818;stroke-width:1.0;"/><line style="stroke:#181818;stroke-width:1.0;" x1="31" x2="278" y1="654.5859" y2="654.5859"/><text fill="#000000" font-family="sans-serif" font-size="13" lengthAdjust="spacing" textLength="125" x="43" y="649.7295">Response [http/https]</text><!--SRC=[bPFDKeCm4CVlFCM-073leHVqv3ZEjAENJWyxOQKPqqrC5hK-lIbG1p2evH38alz-_3QBIgo7ocXYoVeNv6juy0so_aJHbe_8s91VGRLvl9dyWHAs3XN1xY3YolCIzbb22_cIpoSqkaOXsD1hIq6kKploGGU1MnOjfwpnjdKGY6lmlRi0kswh6HnwD8OCODo_enPuZfLxajRpFeFu94EluPu4OueOoBzfHGE7us05PLdeGte6lphQHjJnUyepzCOhtDpHIHcBBuC3Rms5iMoMRqVlHmsNSCOsMgLbaRaZ3eHU7OPOGemieUnYzkiHdTFSb4LHJ7B_bYOGmYgsEpWRJumrKpvvWjWawsNfEMHbR5iFvXdgaMvyAjMYL9eN_ejpydTj2z85BgdE_4iSRtwsS8dwKPzBXX7-0W00]--></g></svg>