<?xml version="1.0" encoding="UTF-8" standalone="no"?><svg xmlns="http://www.w3.org/2000/svg" xmlns:xlink="http://www.w3.org/1999/xlink" contentStyleType="text/css" height="589px" preserveAspectRatio="none" style="width:1586px;height:589px;background:#FFFFFF;" version="1.1" viewBox="0 0 1586 589" width="1586px" zoomAndPan="magnify"><defs/><g><!--MD5=[ee5e8230e68e644357958932f455d434]
cluster Azure--><g id="cluster_Azure"><rect fill="none" height="576" rx="2.5" ry="2.5" style="stroke:#181818;stroke-width:1.0;" width="1573" x="7" y="7"/><path d="M57,7 L57,17.6094 L47,27.6094 L7,27.6094 " fill="none" style="stroke:#181818;stroke-width:1.0;"/><text fill="#000000" font-family="sans-serif" font-size="14" font-weight="bold" lengthAdjust="spacing" textLength="40" x="10" y="22.5332">Azure</text></g><!--MD5=[32635918022468fb38b32e62093d8715]
cluster Azure Kubernetes Service--><g id="cluster_Azure Kubernetes Service"><rect fill="none" height="508" rx="2.5" ry="2.5" style="stroke:#181818;stroke-width:1.0;" width="1051" x="505" y="51"/><path d="M700,51 L700,61.6094 L690,71.6094 L505,71.6094 " fill="none" style="stroke:#181818;stroke-width:1.0;"/><text fill="#000000" font-family="sans-serif" font-size="14" font-weight="bold" lengthAdjust="spacing" textLength="185" x="508" y="66.5332">Azure Kubernetes Service</text></g><!--MD5=[1471050285b8626eeaa7effd096828e5]
cluster SDK Frontend--><g id="cluster_SDK Frontend"><rect fill="none" height="100" rx="2.5" ry="2.5" style="stroke:#181818;stroke-width:1.0;" width="126" x="942" y="95"/><path d="M1050,95 L1050,105.6094 L1040,115.6094 L942,115.6094 " fill="none" style="stroke:#181818;stroke-width:1.0;"/><text fill="#000000" font-family="sans-serif" font-size="14" font-weight="bold" lengthAdjust="spacing" textLength="98" x="945" y="110.5332">SDK Frontend</text></g><!--MD5=[3f6934300aba8886e56fe67437cc5f88]
cluster SDK Analyze--><g id="cluster_SDK Analyze"><rect fill="none" height="208" rx="2.5" ry="2.5" style="stroke:#181818;stroke-width:1.0;" width="440" x="1092" y="95"/><path d="M1188,95 L1188,105.6094 L1178,115.6094 L1092,115.6094 " fill="none" style="stroke:#181818;stroke-width:1.0;"/><text fill="#000000" font-family="sans-serif" font-size="14" font-weight="bold" lengthAdjust="spacing" textLength="86" x="1095" y="110.5332">SDK Analyze</text></g><!--MD5=[08f428eeb589c98cc364bce36910da3a]
cluster SDK Metadata--><g id="cluster_SDK Metadata"><rect fill="none" height="208" rx="2.5" ry="2.5" style="stroke:#181818;stroke-width:1.0;" width="389" x="529" y="95"/><path d="M637,95 L637,105.6094 L627,115.6094 L529,115.6094 " fill="none" style="stroke:#181818;stroke-width:1.0;"/><text fill="#000000" font-family="sans-serif" font-size="14" font-weight="bold" lengthAdjust="spacing" textLength="98" x="532" y="110.5332">SDK Metadata</text></g><!--MD5=[e6fc60b304e83799a2f90af62e10a6e5]
cluster SDK Datastore--><g id="cluster_SDK Datastore"><rect fill="none" height="208" rx="2.5" ry="2.5" style="stroke:#181818;stroke-width:1.0;" width="351" x="1111" y="327"/><path d="M1222,327 L1222,337.6094 L1212,347.6094 L1111,347.6094 " fill="none" style="stroke:#181818;stroke-width:1.0;"/><text fill="#000000" font-family="sans-serif" font-size="14" font-weight="bold" lengthAdjust="spacing" textLength="101" x="1114" y="342.5332">SDK Datastore</text></g><!--MD5=[64af9b01d0e6de68d35aa102b87f220d]
cluster SDK Ops--><g id="cluster_SDK Ops"><rect fill="none" height="208" rx="2.5" ry="2.5" style="stroke:#181818;stroke-width:1.0;" width="288" x="799" y="327"/><path d="M870,327 L870,337.6094 L860,347.6094 L799,347.6094 " fill="none" style="stroke:#181818;stroke-width:1.0;"/><text fill="#000000" font-family="sans-serif" font-size="14" font-weight="bold" lengthAdjust="spacing" textLength="61" x="802" y="342.5332">SDK Ops</text></g><!--MD5=[8b1b07eb3731e0c26574f4187b26248e]
entity Azure Database for PostgreSQL Server--><g id="elem_Azure Database for PostgreSQL Server"><polygon fill="#F1F1F1" points="199.5,141,209.5,131,488.5,131,488.5,168.6094,478.5,178.6094,199.5,178.6094,199.5,141" style="stroke:#181818;stroke-width:0.5;"/><line style="stroke:#181818;stroke-width:0.5;" x1="478.5" x2="488.5" y1="141" y2="131"/><line style="stroke:#181818;stroke-width:0.5;" x1="199.5" x2="478.5" y1="141" y2="141"/><line style="stroke:#181818;stroke-width:0.5;" x1="478.5" x2="478.5" y1="141" y2="178.6094"/><text fill="#000000" font-family="sans-serif" font-size="14" lengthAdjust="spacing" textLength="249" x="214.5" y="165.5332">Azure Database for PostgreSQL Server</text></g><!--MD5=[8df7448501681d20e2b4cc35722eb8d4]
entity Azure EventHub--><g id="elem_Azure EventHub"><polygon fill="#F1F1F1" points="23.5,141,33.5,131,164.5,131,164.5,168.6094,154.5,178.6094,23.5,178.6094,23.5,141" style="stroke:#181818;stroke-width:0.5;"/><line style="stroke:#181818;stroke-width:0.5;" x1="154.5" x2="164.5" y1="141" y2="131"/><line style="stroke:#181818;stroke-width:0.5;" x1="23.5" x2="154.5" y1="141" y2="141"/><line style="stroke:#181818;stroke-width:0.5;" x1="154.5" x2="154.5" y1="141" y2="178.6094"/><text fill="#000000" font-family="sans-serif" font-size="14" lengthAdjust="spacing" textLength="101" x="38.5" y="165.5332">Azure EventHub</text></g><!--MD5=[b1e3d2dcb3697de9e6328d1cb436cbc4]
entity frontend--><g id="elem_frontend"><polygon fill="#F0F8FF" points="958.5,141,968.5,131,1051.5,131,1051.5,168.6094,1041.5,178.6094,958.5,178.6094,958.5,141" style="stroke:#0000FF;stroke-width:0.5;"/><line style="stroke:#0000FF;stroke-width:0.5;" x1="1041.5" x2="1051.5" y1="141" y2="131"/><line style="stroke:#0000FF;stroke-width:0.5;" x1="958.5" x2="1041.5" y1="141" y2="141"/><line style="stroke:#0000FF;stroke-width:0.5;" x1="1041.5" x2="1041.5" y1="141" y2="178.6094"/><text fill="#0000FF" font-family="sans-serif" font-size="14" lengthAdjust="spacing" textLength="53" x="973.5" y="165.5332">frontend</text></g><!--MD5=[1e38ee63cc23f89100e14039e3aadfb2]
entity Grafana--><g id="elem_Grafana"><polygon fill="#F1F1F1" points="1129,141,1139,131,1221,131,1221,168.6094,1211,178.6094,1129,178.6094,1129,141" style="stroke:#181818;stroke-width:0.5;"/><line style="stroke:#181818;stroke-width:0.5;" x1="1211" x2="1221" y1="141" y2="131"/><line style="stroke:#181818;stroke-width:0.5;" x1="1129" x2="1211" y1="141" y2="141"/><line style="stroke:#181818;stroke-width:0.5;" x1="1211" x2="1211" y1="141" y2="178.6094"/><text fill="#000000" font-family="sans-serif" font-size="14" lengthAdjust="spacing" textLength="52" x="1144" y="165.5332">Grafana</text></g><!--MD5=[e894950f89fe7154e3dcb15e585e0e70]
entity JupyterHub--><g id="elem_JupyterHub"><polygon fill="#F1F1F1" points="1256.5,141,1266.5,131,1367.5,131,1367.5,168.6094,1357.5,178.6094,1256.5,178.6094,1256.5,141" style="stroke:#181818;stroke-width:0.5;"/><line style="stroke:#181818;stroke-width:0.5;" x1="1357.5" x2="1367.5" y1="141" y2="131"/><line style="stroke:#181818;stroke-width:0.5;" x1="1256.5" x2="1357.5" y1="141" y2="141"/><line style="stroke:#181818;stroke-width:0.5;" x1="1357.5" x2="1357.5" y1="141" y2="178.6094"/><text fill="#000000" font-family="sans-serif" font-size="14" lengthAdjust="spacing" textLength="71" x="1271.5" y="165.5332">JupyterHub</text></g><!--MD5=[215df0d531a4c995a084ca7e69473a2f]
entity opensearch (analyze)--><g id="elem_opensearch (analyze)"><polygon fill="#F1F1F1" points="1108.5,249,1118.5,239,1285.5,239,1285.5,276.6094,1275.5,286.6094,1108.5,286.6094,1108.5,249" style="stroke:#181818;stroke-width:0.5;"/><line style="stroke:#181818;stroke-width:0.5;" x1="1275.5" x2="1285.5" y1="249" y2="239"/><line style="stroke:#181818;stroke-width:0.5;" x1="1108.5" x2="1275.5" y1="249" y2="249"/><line style="stroke:#181818;stroke-width:0.5;" x1="1275.5" x2="1275.5" y1="249" y2="286.6094"/><text fill="#000000" font-family="sans-serif" font-size="14" lengthAdjust="spacing" textLength="137" x="1123.5" y="273.5332">opensearch (analyze)</text></g><!--MD5=[433fd8a2f89b19d2e4150ff4dede7f37]
entity opensearch-dashboards--><g id="elem_opensearch-dashboards"><polygon fill="#F1F1F1" points="1320.5,249,1330.5,239,1515.5,239,1515.5,276.6094,1505.5,286.6094,1320.5,286.6094,1320.5,249" style="stroke:#181818;stroke-width:0.5;"/><line style="stroke:#181818;stroke-width:0.5;" x1="1505.5" x2="1515.5" y1="249" y2="239"/><line style="stroke:#181818;stroke-width:0.5;" x1="1320.5" x2="1505.5" y1="249" y2="249"/><line style="stroke:#181818;stroke-width:0.5;" x1="1505.5" x2="1505.5" y1="249" y2="286.6094"/><text fill="#000000" font-family="sans-serif" font-size="14" lengthAdjust="spacing" textLength="155" x="1335.5" y="273.5332">opensearch-dashboards</text></g><!--MD5=[25860af9a78a34bb8c924f3868cf8f7d]
entity metadata service--><g id="elem_metadata service"><polygon fill="#F0F8FF" points="545,141,555,131,693,131,693,168.6094,683,178.6094,545,178.6094,545,141" style="stroke:#0000FF;stroke-width:0.5;"/><line style="stroke:#0000FF;stroke-width:0.5;" x1="683" x2="693" y1="141" y2="131"/><line style="stroke:#0000FF;stroke-width:0.5;" x1="545" x2="683" y1="141" y2="141"/><line style="stroke:#0000FF;stroke-width:0.5;" x1="683" x2="683" y1="141" y2="178.6094"/><text fill="#0000FF" font-family="sans-serif" font-size="14" lengthAdjust="spacing" textLength="108" x="560" y="165.5332">metadata service</text></g><!--MD5=[a3249a11aed0384027c46fa439a3936a]
entity organizationmanager--><g id="elem_organizationmanager"><polygon fill="#F0F8FF" points="728.5,141,738.5,131,901.5,131,901.5,168.6094,891.5,178.6094,728.5,178.6094,728.5,141" style="stroke:#0000FF;stroke-width:0.5;"/><line style="stroke:#0000FF;stroke-width:0.5;" x1="891.5" x2="901.5" y1="141" y2="131"/><line style="stroke:#0000FF;stroke-width:0.5;" x1="728.5" x2="891.5" y1="141" y2="141"/><line style="stroke:#0000FF;stroke-width:0.5;" x1="891.5" x2="891.5" y1="141" y2="178.6094"/><text fill="#0000FF" font-family="sans-serif" font-size="14" lengthAdjust="spacing" textLength="133" x="743.5" y="165.5332">organizationmanager</text></g><!--MD5=[311a50329dcd61d963fd5493378cd659]
entity search--><g id="elem_search"><polygon fill="#F0F8FF" points="577.5,249,587.5,239,660.5,239,660.5,276.6094,650.5,286.6094,577.5,286.6094,577.5,249" style="stroke:#0000FF;stroke-width:0.5;"/><line style="stroke:#0000FF;stroke-width:0.5;" x1="650.5" x2="660.5" y1="249" y2="239"/><line style="stroke:#0000FF;stroke-width:0.5;" x1="577.5" x2="650.5" y1="249" y2="249"/><line style="stroke:#0000FF;stroke-width:0.5;" x1="650.5" x2="650.5" y1="249" y2="286.6094"/><text fill="#0000FF" font-family="sans-serif" font-size="14" lengthAdjust="spacing" textLength="43" x="592.5" y="273.5332">search</text></g><!--MD5=[42e426f826e342cdadd428b55ebdbf57]
entity opensearch (metadata)--><g id="elem_opensearch (metadata)"><polygon fill="#F1F1F1" points="696,249,706,239,884,239,884,276.6094,874,286.6094,696,286.6094,696,249" style="stroke:#181818;stroke-width:0.5;"/><line style="stroke:#181818;stroke-width:0.5;" x1="874" x2="884" y1="249" y2="239"/><line style="stroke:#181818;stroke-width:0.5;" x1="696" x2="874" y1="249" y2="249"/><line style="stroke:#181818;stroke-width:0.5;" x1="874" x2="874" y1="249" y2="286.6094"/><text fill="#000000" font-family="sans-serif" font-size="14" lengthAdjust="spacing" textLength="148" x="711" y="273.5332">opensearch (metadata)</text></g><!--MD5=[ff6ad15ad3c719a929044e1bc073cc48]
entity accessmanager--><g id="elem_accessmanager"><polygon fill="#F0F8FF" points="1127,373,1137,363,1267,363,1267,400.6094,1257,410.6094,1127,410.6094,1127,373" style="stroke:#0000FF;stroke-width:0.5;"/><line style="stroke:#0000FF;stroke-width:0.5;" x1="1257" x2="1267" y1="373" y2="363"/><line style="stroke:#0000FF;stroke-width:0.5;" x1="1127" x2="1257" y1="373" y2="373"/><line style="stroke:#0000FF;stroke-width:0.5;" x1="1257" x2="1257" y1="373" y2="410.6094"/><text fill="#0000FF" font-family="sans-serif" font-size="14" lengthAdjust="spacing" textLength="100" x="1142" y="397.5332">accessmanager</text></g><!--MD5=[649807cdbdfe302cf933f4c9b88b88d5]
entity storagemanager--><g id="elem_storagemanager"><polygon fill="#F0F8FF" points="1302,373,1312,363,1446,363,1446,400.6094,1436,410.6094,1302,410.6094,1302,373" style="stroke:#0000FF;stroke-width:0.5;"/><line style="stroke:#0000FF;stroke-width:0.5;" x1="1436" x2="1446" y1="373" y2="363"/><line style="stroke:#0000FF;stroke-width:0.5;" x1="1302" x2="1436" y1="373" y2="373"/><line style="stroke:#0000FF;stroke-width:0.5;" x1="1436" x2="1436" y1="373" y2="410.6094"/><text fill="#0000FF" font-family="sans-serif" font-size="14" lengthAdjust="spacing" textLength="104" x="1317" y="397.5332">storagemanager</text></g><!--MD5=[5bb1575596e28591f2a8cec6f295939d]
entity ingest--><g id="elem_ingest"><polygon fill="#F0F8FF" points="1158,481,1168,471,1236,471,1236,508.6094,1226,518.6094,1158,518.6094,1158,481" style="stroke:#0000FF;stroke-width:0.5;"/><line style="stroke:#0000FF;stroke-width:0.5;" x1="1226" x2="1236" y1="481" y2="471"/><line style="stroke:#0000FF;stroke-width:0.5;" x1="1158" x2="1226" y1="481" y2="481"/><line style="stroke:#0000FF;stroke-width:0.5;" x1="1226" x2="1226" y1="481" y2="518.6094"/><text fill="#0000FF" font-family="sans-serif" font-size="14" lengthAdjust="spacing" textLength="38" x="1173" y="505.5332">ingest</text></g><!--MD5=[e7dc53d0c74cf6ab85b828d22029d152]
entity argo--><g id="elem_argo"><polygon fill="#F1F1F1" points="847.5,373,857.5,363,916.5,363,916.5,400.6094,906.5,410.6094,847.5,410.6094,847.5,373" style="stroke:#181818;stroke-width:0.5;"/><line style="stroke:#181818;stroke-width:0.5;" x1="906.5" x2="916.5" y1="373" y2="363"/><line style="stroke:#181818;stroke-width:0.5;" x1="847.5" x2="906.5" y1="373" y2="373"/><line style="stroke:#181818;stroke-width:0.5;" x1="906.5" x2="906.5" y1="373" y2="410.6094"/><text fill="#000000" font-family="sans-serif" font-size="14" lengthAdjust="spacing" textLength="29" x="862.5" y="397.5332">argo</text></g><!--MD5=[8e7f0d35c05ab1d95917615f320daa36]
entity loki-stack--><g id="elem_loki-stack"><polygon fill="#F1F1F1" points="951.5,373,961.5,363,1050.5,363,1050.5,400.6094,1040.5,410.6094,951.5,410.6094,951.5,373" style="stroke:#181818;stroke-width:0.5;"/><line style="stroke:#181818;stroke-width:0.5;" x1="1040.5" x2="1050.5" y1="373" y2="363"/><line style="stroke:#181818;stroke-width:0.5;" x1="951.5" x2="1040.5" y1="373" y2="373"/><line style="stroke:#181818;stroke-width:0.5;" x1="1040.5" x2="1040.5" y1="373" y2="410.6094"/><text fill="#000000" font-family="sans-serif" font-size="14" lengthAdjust="spacing" textLength="59" x="966.5" y="397.5332">loki-stack</text></g><!--MD5=[78ec013d4728d7c0762b45b773613742]
entity keycloak--><g id="elem_keycloak"><polygon fill="#F1F1F1" points="815.5,481,825.5,471,910.5,471,910.5,508.6094,900.5,518.6094,815.5,518.6094,815.5,481" style="stroke:#181818;stroke-width:0.5;"/><line style="stroke:#181818;stroke-width:0.5;" x1="900.5" x2="910.5" y1="481" y2="471"/><line style="stroke:#181818;stroke-width:0.5;" x1="815.5" x2="900.5" y1="481" y2="481"/><line style="stroke:#181818;stroke-width:0.5;" x1="900.5" x2="900.5" y1="481" y2="518.6094"/><text fill="#000000" font-family="sans-serif" font-size="14" lengthAdjust="spacing" textLength="55" x="830.5" y="505.5332">keycloak</text></g><!--MD5=[e9a4f80786677dbc9c6130ebf0b654af]
entity cert-manager--><g id="elem_cert-manager"><polygon fill="#F1F1F1" points="945.5,481,955.5,471,1070.5,471,1070.5,508.6094,1060.5,518.6094,945.5,518.6094,945.5,481" style="stroke:#181818;stroke-width:0.5;"/><line style="stroke:#181818;stroke-width:0.5;" x1="1060.5" x2="1070.5" y1="481" y2="471"/><line style="stroke:#181818;stroke-width:0.5;" x1="945.5" x2="1060.5" y1="481" y2="481"/><line style="stroke:#181818;stroke-width:0.5;" x1="1060.5" x2="1060.5" y1="481" y2="518.6094"/><text fill="#000000" font-family="sans-serif" font-size="14" lengthAdjust="spacing" textLength="85" x="960.5" y="505.5332">cert-manager</text></g><!--MD5=[e39b4752066df2ad44755fb55a575036]
@startuml
frame Azure {
    node "Azure Database for PostgreSQL Server"
    node "Azure EventHub"
    frame "Azure Kubernetes Service" {
        frame "SDK Frontend" {
            node "frontend" #aliceblue;line:blue;text:blue
        }
        frame "SDK Analyze" {
            node Grafana
            node JupyterHub
            node "opensearch (analyze)"
            node "opensearch-dashboards"
        }
        frame "SDK Metadata" {
            node "metadata service" #aliceblue;line:blue;text:blue
            node organizationmanager #aliceblue;line:blue;text:blue
            node search #aliceblue;line:blue;text:blue
            node "opensearch (metadata)"
        }
        frame "SDK Datastore" {
            node accessmanager #aliceblue;line:blue;text:blue
            node storagemanager #aliceblue;line:blue;text:blue
            node ingest #aliceblue;line:blue;text:blue
        }
        frame "SDK Ops" {
            node "argo"
            node "loki-stack"
            node keycloak
            node "cert-manager"
        }
    }
}
@enduml

PlantUML version 1.2022.7(Mon Aug 22 19:01:30 CEST 2022)
(GPL source distribution)
Java Runtime: OpenJDK Runtime Environment
JVM: OpenJDK 64-Bit Server VM
Default Encoding: Cp1252
Language: de
Country: DE
--></g></svg>