<?xml version="1.0" encoding="us-ascii" standalone="no"?><svg xmlns="http://www.w3.org/2000/svg" xmlns:xlink="http://www.w3.org/1999/xlink" contentStyleType="text/css" height="405px" preserveAspectRatio="none" style="width:679px;height:405px;background:#FFFFFF;" version="1.1" viewBox="0 0 679 405" width="679px" zoomAndPan="magnify"><defs/><g><rect fill="none" height="145.7578" style="stroke:#000000;stroke-width:1.5;" width="545.5" x="128" y="129.9609"/><line style="stroke:#181818;stroke-width:0.5;stroke-dasharray:5.0,5.0;" x1="22" x2="22" y1="82.6094" y2="323.0703"/><line style="stroke:#181818;stroke-width:0.5;stroke-dasharray:5.0,5.0;" x1="195" x2="195" y1="82.6094" y2="323.0703"/><line style="stroke:#181818;stroke-width:0.5;stroke-dasharray:5.0,5.0;" x1="352.5" x2="352.5" y1="82.6094" y2="323.0703"/><line style="stroke:#181818;stroke-width:0.5;stroke-dasharray:5.0,5.0;" x1="487.5" x2="487.5" y1="82.6094" y2="323.0703"/><text fill="#000000" font-family="sans-serif" font-size="14" lengthAdjust="spacing" textLength="29" x="5" y="79.5332">User</text><ellipse cx="22.5" cy="13.5" fill="#E2E2F0" rx="8" ry="8" style="stroke:#181818;stroke-width:0.5;"/><path d="M22.5,21.5 L22.5,48.5 M9.5,29.5 L35.5,29.5 M22.5,48.5 L9.5,63.5 M22.5,48.5 L35.5,63.5 " fill="none" style="stroke:#181818;stroke-width:0.5;"/><text fill="#000000" font-family="sans-serif" font-size="14" lengthAdjust="spacing" textLength="29" x="5" y="336.6035">User</text><ellipse cx="22.5" cy="348.1797" fill="#E2E2F0" rx="8" ry="8" style="stroke:#181818;stroke-width:0.5;"/><path d="M22.5,356.1797 L22.5,383.1797 M9.5,364.1797 L35.5,364.1797 M22.5,383.1797 L9.5,398.1797 M22.5,383.1797 L35.5,398.1797 " fill="none" style="stroke:#181818;stroke-width:0.5;"/><rect fill="#E2E2F0" height="31.6094" rx="2.5" ry="2.5" style="stroke:#181818;stroke-width:0.5;" width="115" x="138" y="50"/><text fill="#000000" font-family="sans-serif" font-size="14" lengthAdjust="spacing" textLength="101" x="145" y="71.5332">AccessManager</text><rect fill="#E2E2F0" height="31.6094" rx="2.5" ry="2.5" style="stroke:#181818;stroke-width:0.5;" width="115" x="138" y="322.0703"/><text fill="#000000" font-family="sans-serif" font-size="14" lengthAdjust="spacing" textLength="101" x="145" y="343.6035">AccessManager</text><rect fill="#E2E2F0" height="31.6094" rx="2.5" ry="2.5" style="stroke:#181818;stroke-width:0.5;" width="150" x="277.5" y="50"/><text fill="#000000" font-family="sans-serif" font-size="14" lengthAdjust="spacing" textLength="136" x="284.5" y="71.5332">Organizationmanager</text><rect fill="#E2E2F0" height="31.6094" rx="2.5" ry="2.5" style="stroke:#181818;stroke-width:0.5;" width="150" x="277.5" y="322.0703"/><text fill="#000000" font-family="sans-serif" font-size="14" lengthAdjust="spacing" textLength="136" x="284.5" y="343.6035">Organizationmanager</text><rect fill="#E2E2F0" height="31.6094" rx="2.5" ry="2.5" style="stroke:#181818;stroke-width:0.5;" width="100" x="437.5" y="50"/><text fill="#000000" font-family="sans-serif" font-size="14" lengthAdjust="spacing" textLength="86" x="444.5" y="71.5332">AzureStorage</text><rect fill="#E2E2F0" height="31.6094" rx="2.5" ry="2.5" style="stroke:#181818;stroke-width:0.5;" width="100" x="437.5" y="322.0703"/><text fill="#000000" font-family="sans-serif" font-size="14" lengthAdjust="spacing" textLength="86" x="444.5" y="343.6035">AzureStorage</text><polygon fill="#181818" points="183.5,110.9609,193.5,114.9609,183.5,118.9609,187.5,114.9609" style="stroke:#181818;stroke-width:1.0;"/><line style="stroke:#181818;stroke-width:1.0;" x1="22.5" x2="189.5" y1="114.9609" y2="114.9609"/><text fill="#000000" font-family="sans-serif" font-size="13" lengthAdjust="spacing" textLength="149" x="29.5" y="110.1045">Create SAS-Token [https]</text><path d="M128,129.9609 L260,129.9609 L260,138.3125 L250,148.3125 L128,148.3125 L128,129.9609 " fill="#EEEEEE" style="stroke:#000000;stroke-width:1.5;"/><rect fill="none" height="145.7578" style="stroke:#000000;stroke-width:1.5;" width="545.5" x="128" y="129.9609"/><text fill="#000000" font-family="sans-serif" font-size="13" font-weight="bold" lengthAdjust="spacing" textLength="87" x="143" y="144.4561">send requests</text><polygon fill="#181818" points="340.5,166.6641,350.5,170.6641,340.5,174.6641,344.5,170.6641" style="stroke:#181818;stroke-width:1.0;"/><line style="stroke:#181818;stroke-width:1.0;" x1="195.5" x2="346.5" y1="170.6641" y2="170.6641"/><text fill="#000000" font-family="sans-serif" font-size="13" lengthAdjust="spacing" textLength="133" x="202.5" y="165.8076">Validate Request [http]</text><polygon fill="#181818" points="206.5,197.0156,196.5,201.0156,206.5,205.0156,202.5,201.0156" style="stroke:#181818;stroke-width:1.0;"/><line style="stroke:#181818;stroke-width:1.0;" x1="200.5" x2="351.5" y1="201.0156" y2="201.0156"/><text fill="#000000" font-family="sans-serif" font-size="13" lengthAdjust="spacing" textLength="92" x="212.5" y="196.1592">Response [http]</text><polygon fill="#181818" points="475.5,230.3672,485.5,234.3672,475.5,238.3672,479.5,234.3672" style="stroke:#181818;stroke-width:1.0;"/><line style="stroke:#181818;stroke-width:1.0;" x1="195.5" x2="481.5" y1="234.3672" y2="234.3672"/><text fill="#000000" font-family="sans-serif" font-size="13" lengthAdjust="spacing" textLength="222" x="202.5" y="229.5107">Request ServiceAccount-Token [https]</text><path d="M492,214.0156 L492,240.0156 L658,240.0156 L658,224.0156 L648,214.0156 L492,214.0156 " fill="#FEFFDD" style="stroke:#181818;stroke-width:0.5;"/><path d="M648,214.0156 L648,224.0156 L658,224.0156 L648,214.0156 " fill="#FEFFDD" style="stroke:#181818;stroke-width:0.5;"/><text fill="#000000" font-family="sans-serif" font-size="13" lengthAdjust="spacing" textLength="145" x="498" y="232.5107">use of a storage principal</text><polygon fill="#181818" points="206.5,263.7188,196.5,267.7188,206.5,271.7188,202.5,267.7188" style="stroke:#181818;stroke-width:1.0;"/><line style="stroke:#181818;stroke-width:1.0;" x1="200.5" x2="486.5" y1="267.7188" y2="267.7188"/><text fill="#000000" font-family="sans-serif" font-size="13" lengthAdjust="spacing" textLength="99" x="212.5" y="262.8623">Response [https]</text><polygon fill="#181818" points="33.5,301.0703,23.5,305.0703,33.5,309.0703,29.5,305.0703" style="stroke:#181818;stroke-width:1.0;"/><line style="stroke:#181818;stroke-width:1.0;" x1="27.5" x2="194.5" y1="305.0703" y2="305.0703"/><text fill="#000000" font-family="sans-serif" font-size="13" lengthAdjust="spacing" textLength="99" x="39.5" y="300.2139">Response [https]</text><!--SRC=[XP0n3i8m34NtdC8Nu08Ta2fcXDG22-fW1LCYm0bsmi3fIQX0XIBXmOFb__wtqKOli54IKnhCvb1RIwfBPEn9AbW8OIHewtQszYTYs1rZ3DePqujF0PHu3qBNH1hLGAuFG26kf4TsTupEy-N5tUBPxGkv6RG3jtiIVWX-96j8WsUbiNBYNT-JK9kFp8FgxTMIt9oblEqJnw_32eTzJYQkFyOAKhRm1q3G0GD175iNy3nOZXp-fipu_2ypYLcUFzrz0000]--></g></svg>