<?xml version="1.0" encoding="us-ascii" standalone="no"?><svg xmlns="http://www.w3.org/2000/svg" xmlns:xlink="http://www.w3.org/1999/xlink" contentStyleType="text/css" height="648px" preserveAspectRatio="none" style="width:786px;height:648px;background:#FFFFFF;" version="1.1" viewBox="0 0 786 648" width="786px" zoomAndPan="magnify"><defs/><g><rect fill="none" height="345.8672" style="stroke:#000000;stroke-width:1.5;" width="610.5" x="169.5" y="173.3125"/><line style="stroke:#181818;stroke-width:0.5;stroke-dasharray:5.0,5.0;" x1="22" x2="22" y1="82.6094" y2="566.5313"/><line style="stroke:#181818;stroke-width:0.5;stroke-dasharray:5.0,5.0;" x1="239.5" x2="239.5" y1="82.6094" y2="566.5313"/><line style="stroke:#181818;stroke-width:0.5;stroke-dasharray:5.0,5.0;" x1="478" x2="478" y1="82.6094" y2="566.5313"/><line style="stroke:#181818;stroke-width:0.5;stroke-dasharray:5.0,5.0;" x1="571" x2="571" y1="82.6094" y2="566.5313"/><text fill="#000000" font-family="sans-serif" font-size="14" lengthAdjust="spacing" textLength="29" x="5" y="79.5332">User</text><ellipse cx="22.5" cy="13.5" fill="#E2E2F0" rx="8" ry="8" style="stroke:#181818;stroke-width:0.5;"/><path d="M22.5,21.5 L22.5,48.5 M9.5,29.5 L35.5,29.5 M22.5,48.5 L9.5,63.5 M22.5,48.5 L35.5,63.5 " fill="none" style="stroke:#181818;stroke-width:0.5;"/><text fill="#000000" font-family="sans-serif" font-size="14" lengthAdjust="spacing" textLength="29" x="5" y="580.0645">User</text><ellipse cx="22.5" cy="591.6406" fill="#E2E2F0" rx="8" ry="8" style="stroke:#181818;stroke-width:0.5;"/><path d="M22.5,599.6406 L22.5,626.6406 M9.5,607.6406 L35.5,607.6406 M22.5,626.6406 L9.5,641.6406 M22.5,626.6406 L35.5,641.6406 " fill="none" style="stroke:#181818;stroke-width:0.5;"/><rect fill="#E2E2F0" height="31.6094" rx="2.5" ry="2.5" style="stroke:#181818;stroke-width:0.5;" width="120" x="179.5" y="50"/><text fill="#000000" font-family="sans-serif" font-size="14" lengthAdjust="spacing" textLength="106" x="186.5" y="71.5332">MetadataService</text><rect fill="#E2E2F0" height="31.6094" rx="2.5" ry="2.5" style="stroke:#181818;stroke-width:0.5;" width="120" x="179.5" y="565.5313"/><text fill="#000000" font-family="sans-serif" font-size="14" lengthAdjust="spacing" textLength="106" x="186.5" y="587.0645">MetadataService</text><rect fill="#E2E2F0" height="31.6094" rx="2.5" ry="2.5" style="stroke:#181818;stroke-width:0.5;" width="71" x="443" y="50"/><text fill="#000000" font-family="sans-serif" font-size="14" lengthAdjust="spacing" textLength="57" x="450" y="71.5332">Keycloak</text><rect fill="#E2E2F0" height="31.6094" rx="2.5" ry="2.5" style="stroke:#181818;stroke-width:0.5;" width="71" x="443" y="565.5313"/><text fill="#000000" font-family="sans-serif" font-size="14" lengthAdjust="spacing" textLength="57" x="450" y="587.0645">Keycloak</text><rect fill="#E2E2F0" height="31.6094" rx="2.5" ry="2.5" style="stroke:#181818;stroke-width:0.5;" width="94" x="524" y="50"/><text fill="#000000" font-family="sans-serif" font-size="14" lengthAdjust="spacing" textLength="80" x="531" y="71.5332">OpenSearch</text><rect fill="#E2E2F0" height="31.6094" rx="2.5" ry="2.5" style="stroke:#181818;stroke-width:0.5;" width="94" x="524" y="565.5313"/><text fill="#000000" font-family="sans-serif" font-size="14" lengthAdjust="spacing" textLength="80" x="531" y="587.0645">OpenSearch</text><polygon fill="#181818" points="227.5,110.9609,237.5,114.9609,227.5,118.9609,231.5,114.9609" style="stroke:#181818;stroke-width:1.0;"/><line style="stroke:#181818;stroke-width:1.0;" x1="22.5" x2="233.5" y1="114.9609" y2="114.9609"/><text fill="#000000" font-family="sans-serif" font-size="13" lengthAdjust="spacing" textLength="193" x="29.5" y="110.1045">CRUD Space-Context [http/https]</text><line style="stroke:#181818;stroke-width:1.0;stroke-dasharray:2.0,2.0;" x1="239.5" x2="281.5" y1="145.3125" y2="145.3125"/><line style="stroke:#181818;stroke-width:1.0;stroke-dasharray:2.0,2.0;" x1="281.5" x2="281.5" y1="145.3125" y2="158.3125"/><line style="stroke:#181818;stroke-width:1.0;stroke-dasharray:2.0,2.0;" x1="240.5" x2="281.5" y1="158.3125" y2="158.3125"/><polygon fill="#181818" points="250.5,154.3125,240.5,158.3125,250.5,162.3125,246.5,158.3125" style="stroke:#181818;stroke-width:1.0;"/><text fill="#000000" font-family="sans-serif" font-size="13" lengthAdjust="spacing" textLength="99" x="246.5" y="140.4561">Validate Request</text><path d="M169.5,173.3125 L301.5,173.3125 L301.5,181.6641 L291.5,191.6641 L169.5,191.6641 L169.5,173.3125 " fill="#EEEEEE" style="stroke:#000000;stroke-width:1.5;"/><rect fill="none" height="345.8672" style="stroke:#000000;stroke-width:1.5;" width="610.5" x="169.5" y="173.3125"/><text fill="#000000" font-family="sans-serif" font-size="13" font-weight="bold" lengthAdjust="spacing" textLength="87" x="184.5" y="187.8076">send requests</text><polygon fill="#181818" points="466.5,210.0156,476.5,214.0156,466.5,218.0156,470.5,214.0156" style="stroke:#181818;stroke-width:1.0;"/><line style="stroke:#181818;stroke-width:1.0;" x1="239.5" x2="472.5" y1="214.0156" y2="214.0156"/><text fill="#000000" font-family="sans-serif" font-size="13" lengthAdjust="spacing" textLength="215" x="246.5" y="209.1592">Request ServiceAccount-Token [http]</text><polygon fill="#181818" points="250.5,240.3672,240.5,244.3672,250.5,248.3672,246.5,244.3672" style="stroke:#181818;stroke-width:1.0;"/><line style="stroke:#181818;stroke-width:1.0;" x1="244.5" x2="477.5" y1="244.3672" y2="244.3672"/><text fill="#000000" font-family="sans-serif" font-size="13" lengthAdjust="spacing" textLength="92" x="256.5" y="239.5107">Response [http]</text><polygon fill="#181818" points="559,273.7188,569,277.7188,559,281.7188,563,277.7188" style="stroke:#181818;stroke-width:1.0;"/><line style="stroke:#181818;stroke-width:1.0;" x1="239.5" x2="565" y1="277.7188" y2="277.7188"/><text fill="#000000" font-family="sans-serif" font-size="13" lengthAdjust="spacing" textLength="113" x="246.5" y="272.8623">CRUD Tenant [http]</text><path d="M576,257.3672 L576,283.3672 L765,283.3672 L765,267.3672 L755,257.3672 L576,257.3672 " fill="#FEFFDD" style="stroke:#181818;stroke-width:0.5;"/><path d="M755,257.3672 L755,267.3672 L765,267.3672 L755,257.3672 " fill="#FEFFDD" style="stroke:#181818;stroke-width:0.5;"/><text fill="#000000" font-family="sans-serif" font-size="13" lengthAdjust="spacing" textLength="168" x="582" y="275.8623">use of ServiceAccount-Token</text><polygon fill="#181818" points="250.5,307.0703,240.5,311.0703,250.5,315.0703,246.5,311.0703" style="stroke:#181818;stroke-width:1.0;"/><line style="stroke:#181818;stroke-width:1.0;" x1="244.5" x2="570" y1="311.0703" y2="311.0703"/><text fill="#000000" font-family="sans-serif" font-size="13" lengthAdjust="spacing" textLength="92" x="256.5" y="306.2139">Response [http]</text><polygon fill="#181818" points="559,340.4219,569,344.4219,559,348.4219,563,344.4219" style="stroke:#181818;stroke-width:1.0;"/><line style="stroke:#181818;stroke-width:1.0;" x1="239.5" x2="565" y1="344.4219" y2="344.4219"/><text fill="#000000" font-family="sans-serif" font-size="13" lengthAdjust="spacing" textLength="107" x="246.5" y="339.5654">CRUD Roles [http]</text><path d="M576,324.0703 L576,350.0703 L765,350.0703 L765,334.0703 L755,324.0703 L576,324.0703 " fill="#FEFFDD" style="stroke:#181818;stroke-width:0.5;"/><path d="M755,324.0703 L755,334.0703 L765,334.0703 L755,324.0703 " fill="#FEFFDD" style="stroke:#181818;stroke-width:0.5;"/><text fill="#000000" font-family="sans-serif" font-size="13" lengthAdjust="spacing" textLength="168" x="582" y="342.5654">use of ServiceAccount-Token</text><polygon fill="#181818" points="250.5,373.7734,240.5,377.7734,250.5,381.7734,246.5,377.7734" style="stroke:#181818;stroke-width:1.0;"/><line style="stroke:#181818;stroke-width:1.0;" x1="244.5" x2="570" y1="377.7734" y2="377.7734"/><text fill="#000000" font-family="sans-serif" font-size="13" lengthAdjust="spacing" textLength="92" x="256.5" y="372.917">Response [http]</text><polygon fill="#181818" points="559,407.125,569,411.125,559,415.125,563,411.125" style="stroke:#181818;stroke-width:1.0;"/><line style="stroke:#181818;stroke-width:1.0;" x1="239.5" x2="565" y1="411.125" y2="411.125"/><text fill="#000000" font-family="sans-serif" font-size="13" lengthAdjust="spacing" textLength="163" x="246.5" y="406.2686">CRUD RolesMappings [http]</text><path d="M576,390.7734 L576,416.7734 L765,416.7734 L765,400.7734 L755,390.7734 L576,390.7734 " fill="#FEFFDD" style="stroke:#181818;stroke-width:0.5;"/><path d="M755,390.7734 L755,400.7734 L765,400.7734 L755,390.7734 " fill="#FEFFDD" style="stroke:#181818;stroke-width:0.5;"/><text fill="#000000" font-family="sans-serif" font-size="13" lengthAdjust="spacing" textLength="168" x="582" y="409.2686">use of ServiceAccount-Token</text><polygon fill="#181818" points="250.5,440.4766,240.5,444.4766,250.5,448.4766,246.5,444.4766" style="stroke:#181818;stroke-width:1.0;"/><line style="stroke:#181818;stroke-width:1.0;" x1="244.5" x2="570" y1="444.4766" y2="444.4766"/><text fill="#000000" font-family="sans-serif" font-size="13" lengthAdjust="spacing" textLength="92" x="256.5" y="439.6201">Response [http]</text><polygon fill="#181818" points="559,473.8281,569,477.8281,559,481.8281,563,477.8281" style="stroke:#181818;stroke-width:1.0;"/><line style="stroke:#181818;stroke-width:1.0;" x1="239.5" x2="565" y1="477.8281" y2="477.8281"/><text fill="#000000" font-family="sans-serif" font-size="13" lengthAdjust="spacing" textLength="198" x="246.5" y="472.9717">CRUD "measurement"-Index [http]</text><path d="M576,457.4766 L576,483.4766 L765,483.4766 L765,467.4766 L755,457.4766 L576,457.4766 " fill="#FEFFDD" style="stroke:#181818;stroke-width:0.5;"/><path d="M755,457.4766 L755,467.4766 L765,467.4766 L755,457.4766 " fill="#FEFFDD" style="stroke:#181818;stroke-width:0.5;"/><text fill="#000000" font-family="sans-serif" font-size="13" lengthAdjust="spacing" textLength="168" x="582" y="475.9717">use of ServiceAccount-Token</text><polygon fill="#181818" points="250.5,507.1797,240.5,511.1797,250.5,515.1797,246.5,511.1797" style="stroke:#181818;stroke-width:1.0;"/><line style="stroke:#181818;stroke-width:1.0;" x1="244.5" x2="570" y1="511.1797" y2="511.1797"/><text fill="#000000" font-family="sans-serif" font-size="13" lengthAdjust="spacing" textLength="92" x="256.5" y="506.3232">Response [http]</text><polygon fill="#181818" points="33.5,544.5313,23.5,548.5313,33.5,552.5313,29.5,548.5313" style="stroke:#181818;stroke-width:1.0;"/><line style="stroke:#181818;stroke-width:1.0;" x1="27.5" x2="238.5" y1="548.5313" y2="548.5313"/><text fill="#000000" font-family="sans-serif" font-size="13" lengthAdjust="spacing" textLength="125" x="39.5" y="543.6748">Response [http/https]</text><!--SRC=[pPCnRy8m48Lt_ueJUzGz0nAYIrMXIWbqGGmdvpM926VNlY3wxvj0K17rM5LukE5yxzrtbe-jka2RY636GDcSLb2kMBb4EBOMEIsBpJELdYsofHF5IMdRgFgdCSITkHDGbZ9vvwuT4g02dpsY6bC7rtkAa8h29HSD3UUNtPnUyMKxn_lyggRfSc6jwqMpjTj3BbIxiybLaHoeGFHE8cu5YQvl7bA2WsscDrX3MFHM9MwOABHrepdrWw7xI9ATQt_i_XIgS1tY8pAjsFjMwaTZcnt0iGyuG7IMlKY5qpyH3Z_T90Z7lRildbRh6m00]--></g></svg>