<?xml version="1.0" encoding="UTF-8"?>
<!-- Do not edit this file with editors other than diagrams.net -->
<!DOCTYPE svg PUBLIC "-//W3C//DTD SVG 1.1//EN" "http://www.w3.org/Graphics/SVG/1.1/DTD/svg11.dtd">
<svg width="60px" viewBox="0 0 1000 1000" version="1.1" xmlns="http://www.w3.org/2000/svg"
    xmlns:xlink="http://www.w3.org/1999/xlink" xml:space="preserve" fill-rule="evenodd"
    clip-rule="evenodd" stroke-linejoin="round" stroke-miterlimit="2"><path d="M438.081,745.087c0.707,1.82 1.385,3.67 2.034,5.546c43.058,124.492 152.134,124.855 164.763,-21.788c0.603,-40.255 -28.774,-111.631 -94.092,-191.602c-166.654,-204.042 -170.91,-344.838 -79.367,-483.443c14.956,-25.715 42.817,-43.02 74.688,-43.02c47.039,-0 85.343,37.697 86.323,84.497l0.02,0.006l-0,1.84c-0,1.853 -0.059,3.693 -0.174,5.522c-1.156,28.566 -6.794,70.459 22.793,62.914c43.031,-10.974 102.555,-28.93 91.519,2.199c-1.759,4.963 -4.867,9.247 -7.194,13.797c-6.112,11.949 -11.714,23.59 -16.656,35.154c-4.419,-13.592 -14.705,-24.663 -28.777,-28.964c-23.716,-7.247 -49.263,7.463 -57.014,32.828c-3.198,10.466 -2.87,21.121 0.284,30.534l0.001,0.002c0.421,1.258 0.893,2.494 1.414,3.705c3.292,10.037 1.38,18.124 -4.352,24.778c-20.624,13.285 -32.883,42.765 -28.913,75.054c5.093,41.434 34.993,71.905 66.727,68.004c0.632,-0.077 1.259,-0.168 1.881,-0.271c-13.791,16.565 -15.38,46.649 -2.19,75.113c16.405,35.404 49.5,54.984 73.86,43.696c0.4,-0.185 0.794,-0.377 1.185,-0.577c8.454,1.136 10.132,5.704 8.632,14.513c-7.681,14.169 -10.051,33.56 -5.149,53.416c8.598,34.822 36.331,57.969 61.893,51.657c1.096,-0.271 2.171,-0.591 3.221,-0.96c1.753,6.618 3.322,13.14 4.713,19.574c-9.204,12.57 -13.735,30 -11.186,48.394c2.23,16.104 9.481,30.021 19.488,39.675c-0.373,9.054 -1.155,17.837 -2.32,26.338c-15.093,4.814 -28.646,18.804 -34.564,37.841c-5.569,17.917 -3.033,35.987 5.377,48.493c-6.891,11.76 -14.741,22.582 -23.371,32.438l4.623,9.798c-9.737,19.252 -23.63,31.592 -39.626,40.436l-12.753,-9.616c-10.514,6.596 -21.53,12.282 -32.893,17.051l1.732,9.027c-9.05,6.365 -20.983,9.461 -34.699,10.534l-3.873,-7.568c-115.299,27.347 -248.512,-31.601 -263.719,-183.51c-7.423,-74.152 -69.176,-91.423 -161.966,-24.355c17.046,-71.263 61.961,-107.829 109.73,-114.751l0.792,-4.596c6.426,-1.691 18.736,-3.27 26.003,-1.583l0.856,5.438c13.71,1.225 27.259,4.797 40.057,10.597l6.295,-5.731c8.409,3.458 18.848,10.401 24.783,16.461l-2.742,6.871c9.869,8.056 18.816,17.748 26.446,28.995l5.806,-1.256c7.408,7.651 12.513,15.993 15.665,24.921l-6.014,5.934Zm353.128,67.655c20.311,-13.778 41.257,18.268 18.464,42.464c-22.447,23.828 -45.958,16.915 -41.067,-11.133c8.114,11.142 19.941,9.516 28.259,-0.712c7.435,-9.142 10.906,-22.854 -5.656,-30.619Zm35.822,-44.002c14.921,-15.575 29.326,-7.266 28.251,15.997c-1.513,32.736 -25.121,33.603 -35.088,22.134c12.089,-3.266 18.832,-5.631 21.081,-16.247c2.107,-9.946 -2.509,-20.145 -14.244,-21.884Zm-38.095,-75.862c17.702,-22.439 46.925,-1.197 46.989,30.13c0.078,38.809 -34.49,43.314 -44.613,18.453c16.724,0.561 24.6,-5.031 24.238,-21.779c-0.35,-16.261 -9.113,-26.565 -26.614,-26.804Zm12.604,-65.076c12.387,-3.479 23.182,-0.232 28.878,12.584c6.472,14.565 0.725,22.728 -9.63,31.62c17.532,2.577 36.781,-10.327 24.797,-36.311c-11.797,-25.58 -35.584,-31.489 -44.045,-7.893Zm-611.136,-72.503c25.247,-0 45.744,20.497 45.744,45.743c-0,25.246 -20.497,45.743 -45.744,45.743c-25.246,-0 -45.743,-20.497 -45.743,-45.743c0,-25.246 20.497,-45.743 45.743,-45.743Zm534.349,24.166c15.589,-3.809 27.22,1.338 35.894,17.712c9.295,17.545 3.648,30.525 -11.044,40.741c25.711,7.911 45.822,-3.732 31.948,-46.62c-10.446,-32.292 -41.579,-35.89 -56.798,-11.833Zm-394.165,-124.564c27.706,0 50.199,22.494 50.199,50.199c-0,27.706 -22.493,50.199 -50.199,50.199c-27.705,-0 -50.198,-22.493 -50.198,-50.199c-0,-27.705 22.493,-50.199 50.198,-50.199Zm405.674,38.163c15.047,-5.702 24.773,-3.612 34.9,13.61c10.388,17.666 4.607,28.895 -7.412,38.967c22.905,8.346 47.023,-4.18 27.981,-47.429c-13.241,-30.072 -47.921,-31.452 -55.469,-5.148Zm-96.059,-40.592c17.486,-2.628 35.289,2.594 40.877,19.796c9.138,28.134 -0.268,38.995 -16.556,41.305c24.292,14.735 64.791,0.641 38.886,-49.093c-17.297,-33.209 -50.142,-42.196 -63.207,-12.008Zm40.864,-85.911c9.383,-22.611 51.94,-26.833 60.023,27.945c7.542,51.119 -28.922,50.92 -40.164,32.124c17.016,-0.988 24.169,-12.667 16.806,-34.765c-7.226,-21.686 -20.765,-24.074 -36.665,-25.304Zm-428.067,-60.437c34.548,0 62.596,28.048 62.596,62.596c0,34.548 -28.048,62.596 -62.596,62.596c-34.547,-0 -62.596,-28.048 -62.596,-62.596c0,-34.548 28.049,-62.596 62.596,-62.596Zm337.759,5.866c14.944,-23.793 56.878,-23.499 64.212,40.422c4.384,38.21 -27.656,69.088 -54.465,27.613c24.15,3.409 31.868,-8.297 28.908,-32.325c-3.333,-27.059 -15.258,-35.174 -38.655,-35.71Zm23.431,-61.226c11.487,6.809 25.446,8.264 34.286,-2.074c14.457,-16.908 10.983,-27.124 0.244,-33.371c21.226,-3.293 45.538,18.032 13.156,45.141c-21.623,18.101 -47.189,14.969 -47.686,-9.696Z" fill="currentColor"></path></svg>