<?xml version="1.0" encoding="UTF-8" standalone="no"?><!DOCTYPE svg PUBLIC "-//W3C//DTD SVG 1.1//EN" "http://www.w3.org/Graphics/SVG/1.1/DTD/svg11.dtd"><svg width="100%" height="100%" viewBox="0 0 1000 1000" version="1.1" xmlns="http://www.w3.org/2000/svg" xmlns:xlink="http://www.w3.org/1999/xlink" xml:space="preserve" xmlns:serif="http://www.serif.com/" style="fill-rule:evenodd;clip-rule:evenodd;stroke-linejoin:round;stroke-miterlimit:2;"><path d="M125.018,595.862c0.276,0.712 0.542,1.435 0.796,2.169c16.841,48.693 59.504,48.835 64.444,-8.522c0.236,-15.745 -11.255,-43.663 -36.803,-74.942c-65.183,-79.807 -66.848,-134.878 -31.043,-189.091c5.85,-10.058 16.747,-16.826 29.213,-16.826c18.399,-0 33.381,14.744 33.764,33.049l0.008,0.003l-0,0.719c-0,0.725 -0.023,1.445 -0.068,2.16c-0.452,11.173 -2.657,27.559 8.915,24.608c16.831,-4.292 40.113,-11.316 35.796,0.86c-0.688,1.941 -1.904,3.617 -2.814,5.396c-2.39,4.674 -4.581,9.227 -6.515,13.751c-1.728,-5.317 -5.751,-9.647 -11.255,-11.329c-9.276,-2.835 -19.268,2.919 -22.3,12.84c-1.251,4.093 -1.123,8.261 0.111,11.943l0,0.001c0.165,0.491 0.35,0.975 0.553,1.449c1.288,3.926 0.54,7.088 -1.702,9.691c-8.067,5.196 -12.862,16.727 -11.309,29.356c1.992,16.206 13.687,28.125 26.099,26.599c0.247,-0.03 0.493,-0.066 0.736,-0.106c-5.394,6.479 -6.016,18.246 -0.857,29.379c6.417,13.848 19.362,21.506 28.89,17.091c0.156,-0.072 0.31,-0.148 0.463,-0.226c3.307,0.444 3.963,2.231 3.377,5.677c-3.005,5.542 -3.932,13.126 -2.014,20.893c3.362,13.62 14.21,22.673 24.208,20.204c0.429,-0.105 0.849,-0.231 1.26,-0.375c0.685,2.588 1.299,5.139 1.843,7.656c-3.6,4.917 -5.372,11.734 -4.375,18.929c0.872,6.298 3.708,11.742 7.622,15.518c-0.145,3.541 -0.452,6.976 -0.907,10.301c-5.903,1.883 -11.204,7.355 -13.519,14.801c-2.179,7.008 -1.187,14.076 2.103,18.968c-2.695,4.599 -5.766,8.832 -9.141,12.687l1.808,3.832c-3.808,7.531 -9.243,12.357 -15.499,15.816l-4.988,-3.761c-4.113,2.58 -8.421,4.804 -12.866,6.669l0.678,3.531c-3.54,2.49 -8.208,3.701 -13.572,4.12l-1.515,-2.96c-45.097,10.697 -97.201,-12.36 -103.149,-71.777c-2.904,-29.003 -27.058,-35.758 -63.351,-9.526c6.667,-27.873 24.235,-42.175 42.919,-44.883l0.31,-1.797c2.514,-0.662 7.328,-1.279 10.171,-0.619l0.335,2.126c5.362,0.48 10.661,1.877 15.667,4.145l2.462,-2.241c3.289,1.352 7.372,4.068 9.694,6.438l-1.073,2.688c3.861,3.151 7.36,6.941 10.344,11.341l2.271,-0.492c2.898,2.993 4.894,6.256 6.127,9.748l-2.352,2.321Zm138.12,26.462c7.945,-5.389 16.137,7.145 7.222,16.609c-8.78,9.32 -17.976,6.616 -16.062,-4.355c3.173,4.358 7.799,3.722 11.052,-0.278c2.908,-3.576 4.266,-8.939 -2.212,-11.976Zm14.011,-17.211c5.836,-6.092 11.471,-2.842 11.05,6.257c-0.591,12.804 -9.825,13.143 -13.724,8.657c4.729,-1.277 7.366,-2.202 8.246,-6.354c0.824,-3.89 -0.982,-7.88 -5.572,-8.56Zm-14.9,-29.672c6.924,-8.776 18.354,-0.468 18.379,11.785c0.031,15.179 -13.49,16.941 -17.45,7.217c6.542,0.22 9.622,-1.967 9.481,-8.518c-0.137,-6.36 -3.565,-10.39 -10.41,-10.484Zm4.93,-25.453c4.845,-1.361 9.067,-0.091 11.295,4.922c2.532,5.696 0.284,8.889 -3.767,12.367c6.858,1.008 14.387,-4.039 9.699,-14.202c-4.614,-10.005 -13.918,-12.316 -17.227,-3.087Zm-239.036,-28.359c9.875,0 17.892,8.017 17.892,17.892c0,9.875 -8.017,17.892 -17.892,17.892c-9.874,-0 -17.891,-8.017 -17.891,-17.892c-0,-9.875 8.017,-17.892 17.891,-17.892Zm209.002,9.452c6.097,-1.49 10.647,0.524 14.039,6.928c3.636,6.863 1.427,11.94 -4.32,15.935c10.057,3.094 17.923,-1.459 12.497,-18.234c-4.086,-12.631 -16.263,-14.038 -22.216,-4.629Zm-154.171,-48.721c10.836,0 19.634,8.798 19.634,19.635c0,10.836 -8.798,19.634 -19.634,19.634c-10.837,0 -19.634,-8.798 -19.634,-19.634c-0,-10.837 8.797,-19.635 19.634,-19.635Zm158.673,14.927c5.885,-2.23 9.689,-1.413 13.65,5.323c4.063,6.91 1.802,11.302 -2.899,15.242c8.959,3.264 18.392,-1.635 10.944,-18.551c-5.179,-11.763 -18.743,-12.302 -21.695,-2.014Zm-37.572,-15.877c6.839,-1.028 13.802,1.015 15.988,7.743c3.574,11.004 -0.105,15.252 -6.475,16.156c9.501,5.763 25.341,0.251 15.209,-19.202c-6.766,-12.989 -19.612,-16.504 -24.722,-4.697Zm15.983,-33.603c3.67,-8.843 20.315,-10.495 23.477,10.931c2.95,19.994 -11.312,19.916 -15.709,12.565c6.655,-0.387 9.453,-4.955 6.573,-13.598c-2.827,-8.482 -8.122,-9.416 -14.341,-9.898Zm-167.431,-23.638c13.512,-0 24.483,10.97 24.483,24.483c0,13.513 -10.971,24.483 -24.483,24.483c-13.513,0 -24.484,-10.97 -24.484,-24.483c0,-13.513 10.971,-24.483 24.484,-24.483Zm132.109,2.294c5.845,-9.306 22.246,-9.191 25.115,15.81c1.715,14.946 -10.817,27.023 -21.303,10.801c9.446,1.333 12.464,-3.246 11.307,-12.643c-1.304,-10.584 -5.968,-13.758 -15.119,-13.968Zm9.164,-23.947c4.493,2.663 9.953,3.232 13.41,-0.812c5.655,-6.613 4.296,-10.609 0.096,-13.052c8.302,-1.288 17.811,7.053 5.146,17.656c-8.458,7.08 -18.458,5.855 -18.652,-3.792Z" style="fill:#1d2539;"/><text x="322.694px" y="524.913px" style="font-family:'Roboto-Bold', 'Roboto';font-weight:700;font-size:177.387px;fill:#1d2539;">S<tspan x="433.516px 552.046px 668.238px 769.792px 884.771px " y="524.913px 524.913px 524.913px 524.913px 524.913px ">UPERB</tspan></text><text x="323.005px" y="602.93px" style="font-family:'Roboto-Regular', 'Roboto';font-size:68.651px;fill:#1d2539;">D<tspan x="389.975px 453.089px 514.058px 581.497px 621.146px 686.842px 751.766px 819.205px 884.9px 946.573px " y="602.93px 602.93px 602.93px 602.93px 602.93px 602.93px 602.93px 602.93px 602.93px 602.93px ">ATA KRAKEN</tspan></text></svg>