<?xml version="1.0" encoding="us-ascii" standalone="no"?><svg xmlns="http://www.w3.org/2000/svg" xmlns:xlink="http://www.w3.org/1999/xlink" contentStyleType="text/css" height="608px" preserveAspectRatio="none" style="width:1101px;height:608px;background:#FFFFFF;" version="1.1" viewBox="0 0 1101 608" width="1101px" zoomAndPan="magnify"><defs/><g><rect fill="none" height="305.5156" style="stroke:#000000;stroke-width:1.5;" width="968" x="127.5" y="173.3125"/><rect fill="none" height="85.0547" style="stroke:#000000;stroke-width:1.5;" width="948" x="137.5" y="326.0703"/><line style="stroke:#181818;stroke-width:0.5;stroke-dasharray:5.0,5.0;" x1="22" x2="22" y1="82.6094" y2="526.1797"/><line style="stroke:#181818;stroke-width:0.5;stroke-dasharray:5.0,5.0;" x1="207.5" x2="207.5" y1="82.6094" y2="526.1797"/><line style="stroke:#181818;stroke-width:0.5;stroke-dasharray:5.0,5.0;" x1="446" x2="446" y1="82.6094" y2="526.1797"/><line style="stroke:#181818;stroke-width:0.5;stroke-dasharray:5.0,5.0;" x1="539" x2="539" y1="82.6094" y2="526.1797"/><line style="stroke:#181818;stroke-width:0.5;stroke-dasharray:5.0,5.0;" x1="656" x2="656" y1="82.6094" y2="526.1797"/><line style="stroke:#181818;stroke-width:0.5;stroke-dasharray:5.0,5.0;" x1="764" x2="764" y1="82.6094" y2="526.1797"/><text fill="#000000" font-family="sans-serif" font-size="14" lengthAdjust="spacing" textLength="29" x="5" y="79.5332">User</text><ellipse cx="22.5" cy="13.5" fill="#E2E2F0" rx="8" ry="8" style="stroke:#181818;stroke-width:0.5;"/><path d="M22.5,21.5 L22.5,48.5 M9.5,29.5 L35.5,29.5 M22.5,48.5 L9.5,63.5 M22.5,48.5 L35.5,63.5 " fill="none" style="stroke:#181818;stroke-width:0.5;"/><text fill="#000000" font-family="sans-serif" font-size="14" lengthAdjust="spacing" textLength="29" x="5" y="539.7129">User</text><ellipse cx="22.5" cy="551.2891" fill="#E2E2F0" rx="8" ry="8" style="stroke:#181818;stroke-width:0.5;"/><path d="M22.5,559.2891 L22.5,586.2891 M9.5,567.2891 L35.5,567.2891 M22.5,586.2891 L9.5,601.2891 M22.5,586.2891 L35.5,601.2891 " fill="none" style="stroke:#181818;stroke-width:0.5;"/><rect fill="#E2E2F0" height="31.6094" rx="2.5" ry="2.5" style="stroke:#181818;stroke-width:0.5;" width="120" x="147.5" y="50"/><text fill="#000000" font-family="sans-serif" font-size="14" lengthAdjust="spacing" textLength="106" x="154.5" y="71.5332">MetadataService</text><rect fill="#E2E2F0" height="31.6094" rx="2.5" ry="2.5" style="stroke:#181818;stroke-width:0.5;" width="120" x="147.5" y="525.1797"/><text fill="#000000" font-family="sans-serif" font-size="14" lengthAdjust="spacing" textLength="106" x="154.5" y="546.7129">MetadataService</text><rect fill="#E2E2F0" height="31.6094" rx="2.5" ry="2.5" style="stroke:#181818;stroke-width:0.5;" width="71" x="411" y="50"/><text fill="#000000" font-family="sans-serif" font-size="14" lengthAdjust="spacing" textLength="57" x="418" y="71.5332">Keycloak</text><rect fill="#E2E2F0" height="31.6094" rx="2.5" ry="2.5" style="stroke:#181818;stroke-width:0.5;" width="71" x="411" y="525.1797"/><text fill="#000000" font-family="sans-serif" font-size="14" lengthAdjust="spacing" textLength="57" x="418" y="546.7129">Keycloak</text><rect fill="#E2E2F0" height="31.6094" rx="2.5" ry="2.5" style="stroke:#181818;stroke-width:0.5;" width="94" x="492" y="50"/><text fill="#000000" font-family="sans-serif" font-size="14" lengthAdjust="spacing" textLength="80" x="499" y="71.5332">OpenSearch</text><rect fill="#E2E2F0" height="31.6094" rx="2.5" ry="2.5" style="stroke:#181818;stroke-width:0.5;" width="94" x="492" y="525.1797"/><text fill="#000000" font-family="sans-serif" font-size="14" lengthAdjust="spacing" textLength="80" x="499" y="546.7129">OpenSearch</text><rect fill="#E2E2F0" height="31.6094" rx="2.5" ry="2.5" style="stroke:#181818;stroke-width:0.5;" width="121" x="596" y="50"/><text fill="#000000" font-family="sans-serif" font-size="14" lengthAdjust="spacing" textLength="107" x="603" y="71.5332">Schemamanager</text><rect fill="#E2E2F0" height="31.6094" rx="2.5" ry="2.5" style="stroke:#181818;stroke-width:0.5;" width="121" x="596" y="525.1797"/><text fill="#000000" font-family="sans-serif" font-size="14" lengthAdjust="spacing" textLength="107" x="603" y="546.7129">Schemamanager</text><rect fill="#E2E2F0" height="31.6094" rx="2.5" ry="2.5" style="stroke:#181818;stroke-width:0.5;" width="75" x="727" y="50"/><text fill="#000000" font-family="sans-serif" font-size="14" lengthAdjust="spacing" textLength="61" x="734" y="71.5332">EventHub</text><rect fill="#E2E2F0" height="31.6094" rx="2.5" ry="2.5" style="stroke:#181818;stroke-width:0.5;" width="75" x="727" y="525.1797"/><text fill="#000000" font-family="sans-serif" font-size="14" lengthAdjust="spacing" textLength="61" x="734" y="546.7129">EventHub</text><polygon fill="#181818" points="195.5,110.9609,205.5,114.9609,195.5,118.9609,199.5,114.9609" style="stroke:#181818;stroke-width:1.0;"/><line style="stroke:#181818;stroke-width:1.0;" x1="22.5" x2="201.5" y1="114.9609" y2="114.9609"/><text fill="#000000" font-family="sans-serif" font-size="13" lengthAdjust="spacing" textLength="161" x="29.5" y="110.1045">CRUD metadata [http/https]</text><line style="stroke:#181818;stroke-width:1.0;stroke-dasharray:2.0,2.0;" x1="207.5" x2="249.5" y1="145.3125" y2="145.3125"/><line style="stroke:#181818;stroke-width:1.0;stroke-dasharray:2.0,2.0;" x1="249.5" x2="249.5" y1="145.3125" y2="158.3125"/><line style="stroke:#181818;stroke-width:1.0;stroke-dasharray:2.0,2.0;" x1="208.5" x2="249.5" y1="158.3125" y2="158.3125"/><polygon fill="#181818" points="218.5,154.3125,208.5,158.3125,218.5,162.3125,214.5,158.3125" style="stroke:#181818;stroke-width:1.0;"/><text fill="#000000" font-family="sans-serif" font-size="13" lengthAdjust="spacing" textLength="99" x="214.5" y="140.4561">Validate Request</text><path d="M127.5,173.3125 L259.5,173.3125 L259.5,181.6641 L249.5,191.6641 L127.5,191.6641 L127.5,173.3125 " fill="#EEEEEE" style="stroke:#000000;stroke-width:1.5;"/><rect fill="none" height="305.5156" style="stroke:#000000;stroke-width:1.5;" width="968" x="127.5" y="173.3125"/><text fill="#000000" font-family="sans-serif" font-size="13" font-weight="bold" lengthAdjust="spacing" textLength="87" x="142.5" y="187.8076">send requests</text><polygon fill="#181818" points="434.5,210.0156,444.5,214.0156,434.5,218.0156,438.5,214.0156" style="stroke:#181818;stroke-width:1.0;"/><line style="stroke:#181818;stroke-width:1.0;" x1="207.5" x2="440.5" y1="214.0156" y2="214.0156"/><text fill="#000000" font-family="sans-serif" font-size="13" lengthAdjust="spacing" textLength="215" x="214.5" y="209.1592">Request ServiceAccount-Token [http]</text><polygon fill="#181818" points="218.5,240.3672,208.5,244.3672,218.5,248.3672,214.5,244.3672" style="stroke:#181818;stroke-width:1.0;"/><line style="stroke:#181818;stroke-width:1.0;" x1="212.5" x2="445.5" y1="244.3672" y2="244.3672"/><text fill="#000000" font-family="sans-serif" font-size="13" lengthAdjust="spacing" textLength="92" x="224.5" y="239.5107">Response [http]</text><polygon fill="#181818" points="527,273.7188,537,277.7188,527,281.7188,531,277.7188" style="stroke:#181818;stroke-width:1.0;"/><line style="stroke:#181818;stroke-width:1.0;" x1="207.5" x2="533" y1="277.7188" y2="277.7188"/><text fill="#000000" font-family="sans-serif" font-size="13" lengthAdjust="spacing" textLength="198" x="214.5" y="272.8623">index to measurement-Index [http]</text><path d="M544,257.3672 L544,283.3672 L733,283.3672 L733,267.3672 L723,257.3672 L544,257.3672 " fill="#FEFFDD" style="stroke:#181818;stroke-width:0.5;"/><path d="M723,257.3672 L723,267.3672 L733,267.3672 L723,257.3672 " fill="#FEFFDD" style="stroke:#181818;stroke-width:0.5;"/><text fill="#000000" font-family="sans-serif" font-size="13" lengthAdjust="spacing" textLength="168" x="550" y="275.8623">use of ServiceAccount-Token</text><polygon fill="#181818" points="218.5,307.0703,208.5,311.0703,218.5,315.0703,214.5,311.0703" style="stroke:#181818;stroke-width:1.0;"/><line style="stroke:#181818;stroke-width:1.0;" x1="212.5" x2="538" y1="311.0703" y2="311.0703"/><text fill="#000000" font-family="sans-serif" font-size="13" lengthAdjust="spacing" textLength="92" x="224.5" y="306.2139">Response [http]</text><path d="M137.5,326.0703 L254.5,326.0703 L254.5,334.4219 L244.5,344.4219 L137.5,344.4219 L137.5,326.0703 " fill="#EEEEEE" style="stroke:#000000;stroke-width:1.5;"/><rect fill="none" height="85.0547" style="stroke:#000000;stroke-width:1.5;" width="948" x="137.5" y="326.0703"/><text fill="#000000" font-family="sans-serif" font-size="13" font-weight="bold" lengthAdjust="spacing" textLength="72" x="152.5" y="340.5654">deprecated</text><polygon fill="#181818" points="644.5,365.7734,654.5,369.7734,644.5,373.7734,648.5,369.7734" style="stroke:#181818;stroke-width:1.0;"/><line style="stroke:#181818;stroke-width:1.0;" x1="207.5" x2="650.5" y1="369.7734" y2="369.7734"/><text fill="#000000" font-family="sans-serif" font-size="13" lengthAdjust="spacing" textLength="104" x="214.5" y="364.917">index model [http]</text><path d="M661,349.4219 L661,375.4219 L1070,375.4219 L1070,359.4219 L1060,349.4219 L661,349.4219 " fill="#FEFFDD" style="stroke:#181818;stroke-width:0.5;"/><path d="M1060,349.4219 L1060,359.4219 L1070,359.4219 L1060,349.4219 " fill="#FEFFDD" style="stroke:#181818;stroke-width:0.5;"/><text fill="#000000" font-family="sans-serif" font-size="13" lengthAdjust="spacing" textLength="388" x="667" y="367.917">current workaround to enable users to list properties in their indices</text><polygon fill="#181818" points="218.5,399.125,208.5,403.125,218.5,407.125,214.5,403.125" style="stroke:#181818;stroke-width:1.0;"/><line style="stroke:#181818;stroke-width:1.0;" x1="212.5" x2="655.5" y1="403.125" y2="403.125"/><text fill="#000000" font-family="sans-serif" font-size="13" lengthAdjust="spacing" textLength="92" x="224.5" y="398.2686">Response [http]</text><polygon fill="#181818" points="752.5,436.4766,762.5,440.4766,752.5,444.4766,756.5,440.4766" style="stroke:#181818;stroke-width:1.0;"/><line style="stroke:#181818;stroke-width:1.0;" x1="207.5" x2="758.5" y1="440.4766" y2="440.4766"/><text fill="#000000" font-family="sans-serif" font-size="13" lengthAdjust="spacing" textLength="167" x="214.5" y="435.6201">send "indexing-done" [Kafka]</text><polygon fill="#181818" points="218.5,466.8281,208.5,470.8281,218.5,474.8281,214.5,470.8281" style="stroke:#181818;stroke-width:1.0;"/><line style="stroke:#181818;stroke-width:1.0;" x1="212.5" x2="763.5" y1="470.8281" y2="470.8281"/><text fill="#000000" font-family="sans-serif" font-size="13" lengthAdjust="spacing" textLength="58" x="224.5" y="465.9717">Response</text><polygon fill="#181818" points="33.5,504.1797,23.5,508.1797,33.5,512.1797,29.5,508.1797" style="stroke:#181818;stroke-width:1.0;"/><line style="stroke:#181818;stroke-width:1.0;" x1="27.5" x2="206.5" y1="508.1797" y2="508.1797"/><text fill="#000000" font-family="sans-serif" font-size="13" lengthAdjust="spacing" textLength="125" x="39.5" y="503.3232">Response [http/https]</text><!--SRC=[ZLFDJiCm3BxtAQpTA-uz82500aq8QMDSfXsyr6kZjabmaW5lZzEkC4Q7raEaElRtOpkeWcLOUU8i7P1VmnC5B37WadYl5HLmkrZTGNU8mheEmLsbms-oarp8f-fViTKI85ZGMoGVignY6nruCYNm4FCPoFS7xXhczAbQYqqnLiFXyaOf6qt8Nsn3Pb2rwK76Yaal2_BE6a_71HEipuxCaf1LNO0s9Nr0iD82z96f8s5zx8D78CQAGTPL7Gg8WcztaqBxt1_qYpKE7Il9CIbfPTa7puXVgfewxD1WHJpgxsn9xJ7YgMWLcSKPl5jkKDXaDkAP36vRIexOf_zMomGSMqSSD7a1Xr2JviGYzFuR-fU8YstAHfmRoVrUr3t4RJ7ipQotfKsLbzRG3DPpt3Kue8of_z9cYMk29ps3Kt67TVy2]--></g></svg>