<?xml version="1.0" encoding="us-ascii" standalone="no"?><svg xmlns="http://www.w3.org/2000/svg" xmlns:xlink="http://www.w3.org/1999/xlink" contentStyleType="text/css" height="581px" preserveAspectRatio="none" style="width:822px;height:581px;background:#FFFFFF;" version="1.1" viewBox="0 0 822 581" width="822px" zoomAndPan="magnify"><defs/><g><rect fill="none" height="279.1641" style="stroke:#000000;stroke-width:1.5;" width="610.5" x="205.5" y="173.3125"/><line style="stroke:#181818;stroke-width:0.5;stroke-dasharray:5.0,5.0;" x1="22" x2="22" y1="82.6094" y2="499.8281"/><line style="stroke:#181818;stroke-width:0.5;stroke-dasharray:5.0,5.0;" x1="275.5" x2="275.5" y1="82.6094" y2="499.8281"/><line style="stroke:#181818;stroke-width:0.5;stroke-dasharray:5.0,5.0;" x1="514" x2="514" y1="82.6094" y2="499.8281"/><line style="stroke:#181818;stroke-width:0.5;stroke-dasharray:5.0,5.0;" x1="607" x2="607" y1="82.6094" y2="499.8281"/><text fill="#000000" font-family="sans-serif" font-size="14" lengthAdjust="spacing" textLength="29" x="5" y="79.5332">User</text><ellipse cx="22.5" cy="13.5" fill="#E2E2F0" rx="8" ry="8" style="stroke:#181818;stroke-width:0.5;"/><path d="M22.5,21.5 L22.5,48.5 M9.5,29.5 L35.5,29.5 M22.5,48.5 L9.5,63.5 M22.5,48.5 L35.5,63.5 " fill="none" style="stroke:#181818;stroke-width:0.5;"/><text fill="#000000" font-family="sans-serif" font-size="14" lengthAdjust="spacing" textLength="29" x="5" y="513.3613">User</text><ellipse cx="22.5" cy="524.9375" fill="#E2E2F0" rx="8" ry="8" style="stroke:#181818;stroke-width:0.5;"/><path d="M22.5,532.9375 L22.5,559.9375 M9.5,540.9375 L35.5,540.9375 M22.5,559.9375 L9.5,574.9375 M22.5,559.9375 L35.5,574.9375 " fill="none" style="stroke:#181818;stroke-width:0.5;"/><rect fill="#E2E2F0" height="31.6094" rx="2.5" ry="2.5" style="stroke:#181818;stroke-width:0.5;" width="120" x="215.5" y="50"/><text fill="#000000" font-family="sans-serif" font-size="14" lengthAdjust="spacing" textLength="106" x="222.5" y="71.5332">MetadataService</text><rect fill="#E2E2F0" height="31.6094" rx="2.5" ry="2.5" style="stroke:#181818;stroke-width:0.5;" width="120" x="215.5" y="498.8281"/><text fill="#000000" font-family="sans-serif" font-size="14" lengthAdjust="spacing" textLength="106" x="222.5" y="520.3613">MetadataService</text><rect fill="#E2E2F0" height="31.6094" rx="2.5" ry="2.5" style="stroke:#181818;stroke-width:0.5;" width="71" x="479" y="50"/><text fill="#000000" font-family="sans-serif" font-size="14" lengthAdjust="spacing" textLength="57" x="486" y="71.5332">Keycloak</text><rect fill="#E2E2F0" height="31.6094" rx="2.5" ry="2.5" style="stroke:#181818;stroke-width:0.5;" width="71" x="479" y="498.8281"/><text fill="#000000" font-family="sans-serif" font-size="14" lengthAdjust="spacing" textLength="57" x="486" y="520.3613">Keycloak</text><rect fill="#E2E2F0" height="31.6094" rx="2.5" ry="2.5" style="stroke:#181818;stroke-width:0.5;" width="94" x="560" y="50"/><text fill="#000000" font-family="sans-serif" font-size="14" lengthAdjust="spacing" textLength="80" x="567" y="71.5332">OpenSearch</text><rect fill="#E2E2F0" height="31.6094" rx="2.5" ry="2.5" style="stroke:#181818;stroke-width:0.5;" width="94" x="560" y="498.8281"/><text fill="#000000" font-family="sans-serif" font-size="14" lengthAdjust="spacing" textLength="80" x="567" y="520.3613">OpenSearch</text><polygon fill="#181818" points="263.5,110.9609,273.5,114.9609,263.5,118.9609,267.5,114.9609" style="stroke:#181818;stroke-width:1.0;"/><line style="stroke:#181818;stroke-width:1.0;" x1="22.5" x2="269.5" y1="114.9609" y2="114.9609"/><text fill="#000000" font-family="sans-serif" font-size="13" lengthAdjust="spacing" textLength="229" x="29.5" y="110.1045">CRUD Organization-Context [http/https]</text><line style="stroke:#181818;stroke-width:1.0;stroke-dasharray:2.0,2.0;" x1="275.5" x2="317.5" y1="145.3125" y2="145.3125"/><line style="stroke:#181818;stroke-width:1.0;stroke-dasharray:2.0,2.0;" x1="317.5" x2="317.5" y1="145.3125" y2="158.3125"/><line style="stroke:#181818;stroke-width:1.0;stroke-dasharray:2.0,2.0;" x1="276.5" x2="317.5" y1="158.3125" y2="158.3125"/><polygon fill="#181818" points="286.5,154.3125,276.5,158.3125,286.5,162.3125,282.5,158.3125" style="stroke:#181818;stroke-width:1.0;"/><text fill="#000000" font-family="sans-serif" font-size="13" lengthAdjust="spacing" textLength="99" x="282.5" y="140.4561">Validate Request</text><path d="M205.5,173.3125 L337.5,173.3125 L337.5,181.6641 L327.5,191.6641 L205.5,191.6641 L205.5,173.3125 " fill="#EEEEEE" style="stroke:#000000;stroke-width:1.5;"/><rect fill="none" height="279.1641" style="stroke:#000000;stroke-width:1.5;" width="610.5" x="205.5" y="173.3125"/><text fill="#000000" font-family="sans-serif" font-size="13" font-weight="bold" lengthAdjust="spacing" textLength="87" x="220.5" y="187.8076">send requests</text><polygon fill="#181818" points="502.5,210.0156,512.5,214.0156,502.5,218.0156,506.5,214.0156" style="stroke:#181818;stroke-width:1.0;"/><line style="stroke:#181818;stroke-width:1.0;" x1="275.5" x2="508.5" y1="214.0156" y2="214.0156"/><text fill="#000000" font-family="sans-serif" font-size="13" lengthAdjust="spacing" textLength="215" x="282.5" y="209.1592">Request ServiceAccount-Token [http]</text><polygon fill="#181818" points="286.5,240.3672,276.5,244.3672,286.5,248.3672,282.5,244.3672" style="stroke:#181818;stroke-width:1.0;"/><line style="stroke:#181818;stroke-width:1.0;" x1="280.5" x2="513.5" y1="244.3672" y2="244.3672"/><text fill="#000000" font-family="sans-serif" font-size="13" lengthAdjust="spacing" textLength="92" x="292.5" y="239.5107">Response [http]</text><polygon fill="#181818" points="595,273.7188,605,277.7188,595,281.7188,599,277.7188" style="stroke:#181818;stroke-width:1.0;"/><line style="stroke:#181818;stroke-width:1.0;" x1="275.5" x2="601" y1="277.7188" y2="277.7188"/><text fill="#000000" font-family="sans-serif" font-size="13" lengthAdjust="spacing" textLength="113" x="282.5" y="272.8623">CRUD Tenant [http]</text><path d="M612,257.3672 L612,283.3672 L801,283.3672 L801,267.3672 L791,257.3672 L612,257.3672 " fill="#FEFFDD" style="stroke:#181818;stroke-width:0.5;"/><path d="M791,257.3672 L791,267.3672 L801,267.3672 L791,257.3672 " fill="#FEFFDD" style="stroke:#181818;stroke-width:0.5;"/><text fill="#000000" font-family="sans-serif" font-size="13" lengthAdjust="spacing" textLength="168" x="618" y="275.8623">use of ServiceAccount-Token</text><polygon fill="#181818" points="286.5,307.0703,276.5,311.0703,286.5,315.0703,282.5,311.0703" style="stroke:#181818;stroke-width:1.0;"/><line style="stroke:#181818;stroke-width:1.0;" x1="280.5" x2="606" y1="311.0703" y2="311.0703"/><text fill="#000000" font-family="sans-serif" font-size="13" lengthAdjust="spacing" textLength="92" x="292.5" y="306.2139">Response [http]</text><polygon fill="#181818" points="595,340.4219,605,344.4219,595,348.4219,599,344.4219" style="stroke:#181818;stroke-width:1.0;"/><line style="stroke:#181818;stroke-width:1.0;" x1="275.5" x2="601" y1="344.4219" y2="344.4219"/><text fill="#000000" font-family="sans-serif" font-size="13" lengthAdjust="spacing" textLength="107" x="282.5" y="339.5654">CRUD Roles [http]</text><path d="M612,324.0703 L612,350.0703 L801,350.0703 L801,334.0703 L791,324.0703 L612,324.0703 " fill="#FEFFDD" style="stroke:#181818;stroke-width:0.5;"/><path d="M791,324.0703 L791,334.0703 L801,334.0703 L791,324.0703 " fill="#FEFFDD" style="stroke:#181818;stroke-width:0.5;"/><text fill="#000000" font-family="sans-serif" font-size="13" lengthAdjust="spacing" textLength="168" x="618" y="342.5654">use of ServiceAccount-Token</text><polygon fill="#181818" points="286.5,373.7734,276.5,377.7734,286.5,381.7734,282.5,377.7734" style="stroke:#181818;stroke-width:1.0;"/><line style="stroke:#181818;stroke-width:1.0;" x1="280.5" x2="606" y1="377.7734" y2="377.7734"/><text fill="#000000" font-family="sans-serif" font-size="13" lengthAdjust="spacing" textLength="92" x="292.5" y="372.917">Response [http]</text><polygon fill="#181818" points="595,407.125,605,411.125,595,415.125,599,411.125" style="stroke:#181818;stroke-width:1.0;"/><line style="stroke:#181818;stroke-width:1.0;" x1="275.5" x2="601" y1="411.125" y2="411.125"/><text fill="#000000" font-family="sans-serif" font-size="13" lengthAdjust="spacing" textLength="163" x="282.5" y="406.2686">CRUD RolesMappings [http]</text><path d="M612,390.7734 L612,416.7734 L801,416.7734 L801,400.7734 L791,390.7734 L612,390.7734 " fill="#FEFFDD" style="stroke:#181818;stroke-width:0.5;"/><path d="M791,390.7734 L791,400.7734 L801,400.7734 L791,390.7734 " fill="#FEFFDD" style="stroke:#181818;stroke-width:0.5;"/><text fill="#000000" font-family="sans-serif" font-size="13" lengthAdjust="spacing" textLength="168" x="618" y="409.2686">use of ServiceAccount-Token</text><polygon fill="#181818" points="286.5,440.4766,276.5,444.4766,286.5,448.4766,282.5,444.4766" style="stroke:#181818;stroke-width:1.0;"/><line style="stroke:#181818;stroke-width:1.0;" x1="280.5" x2="606" y1="444.4766" y2="444.4766"/><text fill="#000000" font-family="sans-serif" font-size="13" lengthAdjust="spacing" textLength="92" x="292.5" y="439.6201">Response [http]</text><polygon fill="#181818" points="33.5,477.8281,23.5,481.8281,33.5,485.8281,29.5,481.8281" style="stroke:#181818;stroke-width:1.0;"/><line style="stroke:#181818;stroke-width:1.0;" x1="27.5" x2="274.5" y1="481.8281" y2="481.8281"/><text fill="#000000" font-family="sans-serif" font-size="13" lengthAdjust="spacing" textLength="125" x="39.5" y="476.9717">Response [http/https]</text><!--SRC=[pPAnZi8m38RtF8LVe6BlW7I23I6aGbaGWnLyRKHbXyH5S4z_AHI1k8odqsNmuFZ_ypdwqQe4g2C5CnGefh0anGCghYcSdQKIPbKzXrLeaDqNgXCkPi9A5uLTg-edGubxywQ38kUrnSwb1a55fvwY6jC4wJr4uWE4UoyQIEU7tHGMTBMTuB5yg66y_B1MUjPY8qVYEzN-Pl9GPFUgA7hXIA-2pAihJxmc3BOTls93ZAolAfQqKN1DgoNqoL0-isItsQVThq9Lqb7yZqnBzDvnyrTiAKScmpQ4-tru3Eut]--></g></svg>