<?xml version="1.0" encoding="us-ascii" standalone="no"?><svg xmlns="http://www.w3.org/2000/svg" xmlns:xlink="http://www.w3.org/1999/xlink" contentStyleType="text/css" height="448px" preserveAspectRatio="none" style="width:795px;height:448px;background:#FFFFFF;" version="1.1" viewBox="0 0 795 448" width="795px" zoomAndPan="magnify"><defs/><g><rect fill="none" height="145.7578" style="stroke:#000000;stroke-width:1.5;" width="610.5" x="178.5" y="173.3125"/><line style="stroke:#181818;stroke-width:0.5;stroke-dasharray:5.0,5.0;" x1="22" x2="22" y1="82.6094" y2="366.4219"/><line style="stroke:#181818;stroke-width:0.5;stroke-dasharray:5.0,5.0;" x1="248.5" x2="248.5" y1="82.6094" y2="366.4219"/><line style="stroke:#181818;stroke-width:0.5;stroke-dasharray:5.0,5.0;" x1="487" x2="487" y1="82.6094" y2="366.4219"/><line style="stroke:#181818;stroke-width:0.5;stroke-dasharray:5.0,5.0;" x1="580" x2="580" y1="82.6094" y2="366.4219"/><text fill="#000000" font-family="sans-serif" font-size="14" lengthAdjust="spacing" textLength="29" x="5" y="79.5332">User</text><ellipse cx="22.5" cy="13.5" fill="#E2E2F0" rx="8" ry="8" style="stroke:#181818;stroke-width:0.5;"/><path d="M22.5,21.5 L22.5,48.5 M9.5,29.5 L35.5,29.5 M22.5,48.5 L9.5,63.5 M22.5,48.5 L35.5,63.5 " fill="none" style="stroke:#181818;stroke-width:0.5;"/><text fill="#000000" font-family="sans-serif" font-size="14" lengthAdjust="spacing" textLength="29" x="5" y="379.9551">User</text><ellipse cx="22.5" cy="391.5313" fill="#E2E2F0" rx="8" ry="8" style="stroke:#181818;stroke-width:0.5;"/><path d="M22.5,399.5313 L22.5,426.5313 M9.5,407.5313 L35.5,407.5313 M22.5,426.5313 L9.5,441.5313 M22.5,426.5313 L35.5,441.5313 " fill="none" style="stroke:#181818;stroke-width:0.5;"/><rect fill="#E2E2F0" height="31.6094" rx="2.5" ry="2.5" style="stroke:#181818;stroke-width:0.5;" width="120" x="188.5" y="50"/><text fill="#000000" font-family="sans-serif" font-size="14" lengthAdjust="spacing" textLength="106" x="195.5" y="71.5332">MetadataService</text><rect fill="#E2E2F0" height="31.6094" rx="2.5" ry="2.5" style="stroke:#181818;stroke-width:0.5;" width="120" x="188.5" y="365.4219"/><text fill="#000000" font-family="sans-serif" font-size="14" lengthAdjust="spacing" textLength="106" x="195.5" y="386.9551">MetadataService</text><rect fill="#E2E2F0" height="31.6094" rx="2.5" ry="2.5" style="stroke:#181818;stroke-width:0.5;" width="71" x="452" y="50"/><text fill="#000000" font-family="sans-serif" font-size="14" lengthAdjust="spacing" textLength="57" x="459" y="71.5332">Keycloak</text><rect fill="#E2E2F0" height="31.6094" rx="2.5" ry="2.5" style="stroke:#181818;stroke-width:0.5;" width="71" x="452" y="365.4219"/><text fill="#000000" font-family="sans-serif" font-size="14" lengthAdjust="spacing" textLength="57" x="459" y="386.9551">Keycloak</text><rect fill="#E2E2F0" height="31.6094" rx="2.5" ry="2.5" style="stroke:#181818;stroke-width:0.5;" width="94" x="533" y="50"/><text fill="#000000" font-family="sans-serif" font-size="14" lengthAdjust="spacing" textLength="80" x="540" y="71.5332">OpenSearch</text><rect fill="#E2E2F0" height="31.6094" rx="2.5" ry="2.5" style="stroke:#181818;stroke-width:0.5;" width="94" x="533" y="365.4219"/><text fill="#000000" font-family="sans-serif" font-size="14" lengthAdjust="spacing" textLength="80" x="540" y="386.9551">OpenSearch</text><polygon fill="#181818" points="236.5,110.9609,246.5,114.9609,236.5,118.9609,240.5,114.9609" style="stroke:#181818;stroke-width:1.0;"/><line style="stroke:#181818;stroke-width:1.0;" x1="22.5" x2="242.5" y1="114.9609" y2="114.9609"/><text fill="#000000" font-family="sans-serif" font-size="13" lengthAdjust="spacing" textLength="202" x="29.5" y="110.1045">Create applicationindex [http/https]</text><line style="stroke:#181818;stroke-width:1.0;stroke-dasharray:2.0,2.0;" x1="248.5" x2="290.5" y1="145.3125" y2="145.3125"/><line style="stroke:#181818;stroke-width:1.0;stroke-dasharray:2.0,2.0;" x1="290.5" x2="290.5" y1="145.3125" y2="158.3125"/><line style="stroke:#181818;stroke-width:1.0;stroke-dasharray:2.0,2.0;" x1="249.5" x2="290.5" y1="158.3125" y2="158.3125"/><polygon fill="#181818" points="259.5,154.3125,249.5,158.3125,259.5,162.3125,255.5,158.3125" style="stroke:#181818;stroke-width:1.0;"/><text fill="#000000" font-family="sans-serif" font-size="13" lengthAdjust="spacing" textLength="140" x="255.5" y="140.4561">Validate Request [https]</text><path d="M178.5,173.3125 L310.5,173.3125 L310.5,181.6641 L300.5,191.6641 L178.5,191.6641 L178.5,173.3125 " fill="#EEEEEE" style="stroke:#000000;stroke-width:1.5;"/><rect fill="none" height="145.7578" style="stroke:#000000;stroke-width:1.5;" width="610.5" x="178.5" y="173.3125"/><text fill="#000000" font-family="sans-serif" font-size="13" font-weight="bold" lengthAdjust="spacing" textLength="87" x="193.5" y="187.8076">send requests</text><polygon fill="#181818" points="475.5,210.0156,485.5,214.0156,475.5,218.0156,479.5,214.0156" style="stroke:#181818;stroke-width:1.0;"/><line style="stroke:#181818;stroke-width:1.0;" x1="248.5" x2="481.5" y1="214.0156" y2="214.0156"/><text fill="#000000" font-family="sans-serif" font-size="13" lengthAdjust="spacing" textLength="215" x="255.5" y="209.1592">Request ServiceAccount-Token [http]</text><polygon fill="#181818" points="259.5,240.3672,249.5,244.3672,259.5,248.3672,255.5,244.3672" style="stroke:#181818;stroke-width:1.0;"/><line style="stroke:#181818;stroke-width:1.0;" x1="253.5" x2="486.5" y1="244.3672" y2="244.3672"/><text fill="#000000" font-family="sans-serif" font-size="13" lengthAdjust="spacing" textLength="163" x="265.5" y="239.5107">ServiceAccount-Token [http]</text><polygon fill="#181818" points="568,273.7188,578,277.7188,568,281.7188,572,277.7188" style="stroke:#181818;stroke-width:1.0;"/><line style="stroke:#181818;stroke-width:1.0;" x1="248.5" x2="574" y1="277.7188" y2="277.7188"/><text fill="#000000" font-family="sans-serif" font-size="13" lengthAdjust="spacing" textLength="171" x="255.5" y="272.8623">create application-index [http]</text><path d="M585,257.3672 L585,283.3672 L774,283.3672 L774,267.3672 L764,257.3672 L585,257.3672 " fill="#FEFFDD" style="stroke:#181818;stroke-width:0.5;"/><path d="M764,257.3672 L764,267.3672 L774,267.3672 L764,257.3672 " fill="#FEFFDD" style="stroke:#181818;stroke-width:0.5;"/><text fill="#000000" font-family="sans-serif" font-size="13" lengthAdjust="spacing" textLength="168" x="591" y="275.8623">use of ServiceAccount-Token</text><polygon fill="#181818" points="259.5,307.0703,249.5,311.0703,259.5,315.0703,255.5,311.0703" style="stroke:#181818;stroke-width:1.0;"/><line style="stroke:#181818;stroke-width:1.0;" x1="253.5" x2="579" y1="311.0703" y2="311.0703"/><text fill="#000000" font-family="sans-serif" font-size="13" lengthAdjust="spacing" textLength="92" x="265.5" y="306.2139">Response [http]</text><polygon fill="#181818" points="33.5,344.4219,23.5,348.4219,33.5,352.4219,29.5,348.4219" style="stroke:#181818;stroke-width:1.0;"/><line style="stroke:#181818;stroke-width:1.0;" x1="27.5" x2="247.5" y1="348.4219" y2="348.4219"/><text fill="#000000" font-family="sans-serif" font-size="13" lengthAdjust="spacing" textLength="125" x="39.5" y="343.5654">Response [http/https]</text><!--SRC=[XP6x3i8m34NtV8L_e6BlW8GO4K8gZmLri5938weu92w2loUbvQ4s4Xcy-DwJQnkri8Tz8A-w0jaSrYHOeU2M_Creoc7f2OK0dMkCHZ5iZQte3iTQnCsw4aerSa6M8XsmCLN7AkZQKf0U4TtgxBbr4CXMuFjUK13V13k75JrqmtZ9FvIXkT2QMolPZYzaUtJvWhmToUd-cHC9Dexibj3hEWSzMKxsivqUOJagl3dNaaCR2FYK_FMb_RAJQGiAZcra3FYuC9L8sDroB1ukzGG0]--></g></svg>