<?xml version="1.0" encoding="us-ascii" standalone="no"?><svg xmlns="http://www.w3.org/2000/svg" xmlns:xlink="http://www.w3.org/1999/xlink" contentStyleType="text/css" height="304px" preserveAspectRatio="none" style="width:1589px;height:304px;background:#FFFFFF;" version="1.1" viewBox="0 0 1589 304" width="1589px" zoomAndPan="magnify"><defs/><g><!--cluster Azure Blob Storage--><g id="cluster_Azure Blob Storage"><rect fill="none" height="291" rx="2.5" ry="2.5" style="stroke:#181818;stroke-width:1.0;" width="1576" x="7" y="7"/><text fill="#000000" font-family="sans-serif" font-size="14" font-weight="bold" lengthAdjust="spacing" textLength="135" x="727.5" y="23.5332">Azure Blob Storage</text></g><!--cluster Storage Account (Organization1)--><g id="cluster_Storage Account (Organization1)"><path d="M807,61 C807,51 1183,51 1183,51 C1183,51 1559,51 1559,61 L1559,264 C1559,274 1183,274 1183,274 C1183,274 807,274 807,264 L807,61 " fill="none" style="stroke:#181818;stroke-width:1.0;"/><path d="M807,61 C807,71 1183,71 1183,71 C1183,71 1559,71 1559,61 " fill="none" style="stroke:#181818;stroke-width:1.0;"/><text fill="#000000" font-family="sans-serif" font-size="14" font-weight="bold" lengthAdjust="spacing" textLength="227" x="1069.5" y="87.5332">Storage Account (Organization1)</text></g><!--cluster Storage Account (Organization2)--><g id="cluster_Storage Account (Organization2)"><path d="M31,61 C31,51 407,51 407,51 C407,51 783,51 783,61 L783,264 C783,274 407,274 407,274 C407,274 31,274 31,264 L31,61 " fill="none" style="stroke:#181818;stroke-width:1.0;"/><path d="M31,61 C31,71 407,71 407,71 C407,71 783,71 783,61 " fill="none" style="stroke:#181818;stroke-width:1.0;"/><text fill="#000000" font-family="sans-serif" font-size="14" font-weight="bold" lengthAdjust="spacing" textLength="227" x="293.5" y="87.5332">Storage Account (Organization2)</text></g><!--entity Storage Container (loadingzone for Organization1)--><g id="elem_Storage Container (loadingzone for Organization1)"><polygon fill="#F1F1F1" points="823.5,112,833.5,102,1182.5,102,1182.5,139.6094,1172.5,149.6094,823.5,149.6094,823.5,112" style="stroke:#181818;stroke-width:0.5;"/><line style="stroke:#181818;stroke-width:0.5;" x1="1172.5" x2="1182.5" y1="112" y2="102"/><line style="stroke:#181818;stroke-width:0.5;" x1="823.5" x2="1172.5" y1="112" y2="112"/><line style="stroke:#181818;stroke-width:0.5;" x1="1172.5" x2="1172.5" y1="112" y2="149.6094"/><text fill="#000000" font-family="sans-serif" font-size="14" lengthAdjust="spacing" textLength="319" x="838.5" y="136.5332">Storage Container (loadingzone for Organization1)</text></g><!--entity Storage Container (Space1 in Organization1)--><g id="elem_Storage Container (Space1 in Organization1)"><polygon fill="#F1F1F1" points="1217.5,112,1227.5,102,1542.5,102,1542.5,139.6094,1532.5,149.6094,1217.5,149.6094,1217.5,112" style="stroke:#181818;stroke-width:0.5;"/><line style="stroke:#181818;stroke-width:0.5;" x1="1532.5" x2="1542.5" y1="112" y2="102"/><line style="stroke:#181818;stroke-width:0.5;" x1="1217.5" x2="1532.5" y1="112" y2="112"/><line style="stroke:#181818;stroke-width:0.5;" x1="1532.5" x2="1532.5" y1="112" y2="149.6094"/><text fill="#000000" font-family="sans-serif" font-size="14" lengthAdjust="spacing" textLength="285" x="1232.5" y="136.5332">Storage Container (Space1 in Organization1)</text></g><!--entity Storage Container (Space2 in Organization1)--><g id="elem_Storage Container (Space2 in Organization1)"><polygon fill="#F1F1F1" points="840.5,220,850.5,210,1165.5,210,1165.5,247.6094,1155.5,257.6094,840.5,257.6094,840.5,220" style="stroke:#181818;stroke-width:0.5;"/><line style="stroke:#181818;stroke-width:0.5;" x1="1155.5" x2="1165.5" y1="220" y2="210"/><line style="stroke:#181818;stroke-width:0.5;" x1="840.5" x2="1155.5" y1="220" y2="220"/><line style="stroke:#181818;stroke-width:0.5;" x1="1155.5" x2="1155.5" y1="220" y2="257.6094"/><text fill="#000000" font-family="sans-serif" font-size="14" lengthAdjust="spacing" textLength="285" x="855.5" y="244.5332">Storage Container (Space2 in Organization1)</text></g><!--entity Storage Container (loadingzone for Organization2)--><g id="elem_Storage Container (loadingzone for Organization2)"><polygon fill="#F1F1F1" points="47.5,112,57.5,102,406.5,102,406.5,139.6094,396.5,149.6094,47.5,149.6094,47.5,112" style="stroke:#181818;stroke-width:0.5;"/><line style="stroke:#181818;stroke-width:0.5;" x1="396.5" x2="406.5" y1="112" y2="102"/><line style="stroke:#181818;stroke-width:0.5;" x1="47.5" x2="396.5" y1="112" y2="112"/><line style="stroke:#181818;stroke-width:0.5;" x1="396.5" x2="396.5" y1="112" y2="149.6094"/><text fill="#000000" font-family="sans-serif" font-size="14" lengthAdjust="spacing" textLength="319" x="62.5" y="136.5332">Storage Container (loadingzone for Organization2)</text></g><!--entity Storage Container (Space1 in Organization2)--><g id="elem_Storage Container (Space1 in Organization2)"><polygon fill="#F1F1F1" points="441.5,112,451.5,102,766.5,102,766.5,139.6094,756.5,149.6094,441.5,149.6094,441.5,112" style="stroke:#181818;stroke-width:0.5;"/><line style="stroke:#181818;stroke-width:0.5;" x1="756.5" x2="766.5" y1="112" y2="102"/><line style="stroke:#181818;stroke-width:0.5;" x1="441.5" x2="756.5" y1="112" y2="112"/><line style="stroke:#181818;stroke-width:0.5;" x1="756.5" x2="756.5" y1="112" y2="149.6094"/><text fill="#000000" font-family="sans-serif" font-size="14" lengthAdjust="spacing" textLength="285" x="456.5" y="136.5332">Storage Container (Space1 in Organization2)</text></g><!--entity Storage Container (Space2 in Organization2)--><g id="elem_Storage Container (Space2 in Organization2)"><polygon fill="#F1F1F1" points="64.5,220,74.5,210,389.5,210,389.5,247.6094,379.5,257.6094,64.5,257.6094,64.5,220" style="stroke:#181818;stroke-width:0.5;"/><line style="stroke:#181818;stroke-width:0.5;" x1="379.5" x2="389.5" y1="220" y2="210"/><line style="stroke:#181818;stroke-width:0.5;" x1="64.5" x2="379.5" y1="220" y2="220"/><line style="stroke:#181818;stroke-width:0.5;" x1="379.5" x2="379.5" y1="220" y2="257.6094"/><text fill="#000000" font-family="sans-serif" font-size="14" lengthAdjust="spacing" textLength="285" x="79.5" y="244.5332">Storage Container (Space2 in Organization2)</text></g><!--SRC=[fOz12i8m44NtESNGLLqsDwWUm4LFC4t640WpCautbTwz5LH4437-xV_lmrCAXfmAGTFFanBiYummc2WcQk3gO4j4mn4ls-PUG1-2J6pG7ZKXvnaj2tUx1t0BItm13iA6cKcXBO8nSvg52KwYy7Rn_M0uOw0ECbUY_XEw_6Bh_xVrzRQ-tjO_RHVdLW00]--></g></svg>