<?xml version="1.0" encoding="us-ascii" standalone="no"?><svg xmlns="http://www.w3.org/2000/svg" xmlns:xlink="http://www.w3.org/1999/xlink" contentStyleType="text/css" height="498px" preserveAspectRatio="none" style="width:491px;height:498px;background:#FFFFFF;" version="1.1" viewBox="0 0 491 498" width="491px" zoomAndPan="magnify"><defs/><g><rect fill="none" height="79.0547" style="stroke:#000000;stroke-width:1.5;" width="340" x="145.5" y="247.0156"/><line style="stroke:#181818;stroke-width:0.5;stroke-dasharray:5.0,5.0;" x1="22" x2="22" y1="82.6094" y2="416.7734"/><line style="stroke:#181818;stroke-width:0.5;stroke-dasharray:5.0,5.0;" x1="72" x2="72" y1="82.6094" y2="416.7734"/><line style="stroke:#181818;stroke-width:0.5;stroke-dasharray:5.0,5.0;" x1="230.5" x2="230.5" y1="82.6094" y2="416.7734"/><line style="stroke:#181818;stroke-width:0.5;stroke-dasharray:5.0,5.0;" x1="416" x2="416" y1="82.6094" y2="416.7734"/><text fill="#000000" font-family="sans-serif" font-size="14" lengthAdjust="spacing" textLength="29" x="5" y="79.5332">User</text><ellipse cx="22.5" cy="13.5" fill="#E2E2F0" rx="8" ry="8" style="stroke:#181818;stroke-width:0.5;"/><path d="M22.5,21.5 L22.5,48.5 M9.5,29.5 L35.5,29.5 M22.5,48.5 L9.5,63.5 M22.5,48.5 L35.5,63.5 " fill="none" style="stroke:#181818;stroke-width:0.5;"/><text fill="#000000" font-family="sans-serif" font-size="14" lengthAdjust="spacing" textLength="29" x="5" y="430.3066">User</text><ellipse cx="22.5" cy="441.8828" fill="#E2E2F0" rx="8" ry="8" style="stroke:#181818;stroke-width:0.5;"/><path d="M22.5,449.8828 L22.5,476.8828 M9.5,457.8828 L35.5,457.8828 M22.5,476.8828 L9.5,491.8828 M22.5,476.8828 L35.5,491.8828 " fill="none" style="stroke:#181818;stroke-width:0.5;"/><text fill="#000000" font-family="sans-serif" font-size="14" lengthAdjust="spacing" textLength="39" x="50" y="79.5332">Admin</text><ellipse cx="72.5" cy="13.5" fill="#E2E2F0" rx="8" ry="8" style="stroke:#181818;stroke-width:0.5;"/><path d="M72.5,21.5 L72.5,48.5 M59.5,29.5 L85.5,29.5 M72.5,48.5 L59.5,63.5 M72.5,48.5 L85.5,63.5 " fill="none" style="stroke:#181818;stroke-width:0.5;"/><text fill="#000000" font-family="sans-serif" font-size="14" lengthAdjust="spacing" textLength="39" x="50" y="430.3066">Admin</text><ellipse cx="72.5" cy="441.8828" fill="#E2E2F0" rx="8" ry="8" style="stroke:#181818;stroke-width:0.5;"/><path d="M72.5,449.8828 L72.5,476.8828 M59.5,457.8828 L85.5,457.8828 M72.5,476.8828 L59.5,491.8828 M72.5,476.8828 L85.5,491.8828 " fill="none" style="stroke:#181818;stroke-width:0.5;"/><rect fill="#E2E2F0" height="31.6094" rx="2.5" ry="2.5" style="stroke:#181818;stroke-width:0.5;" width="150" x="155.5" y="50"/><text fill="#000000" font-family="sans-serif" font-size="14" lengthAdjust="spacing" textLength="136" x="162.5" y="71.5332">Organizationmanager</text><rect fill="#E2E2F0" height="31.6094" rx="2.5" ry="2.5" style="stroke:#181818;stroke-width:0.5;" width="150" x="155.5" y="415.7734"/><text fill="#000000" font-family="sans-serif" font-size="14" lengthAdjust="spacing" textLength="136" x="162.5" y="437.3066">Organizationmanager</text><rect fill="#E2E2F0" height="31.6094" rx="2.5" ry="2.5" style="stroke:#181818;stroke-width:0.5;" width="71" x="381" y="50"/><text fill="#000000" font-family="sans-serif" font-size="14" lengthAdjust="spacing" textLength="57" x="388" y="71.5332">Keycloak</text><rect fill="#E2E2F0" height="31.6094" rx="2.5" ry="2.5" style="stroke:#181818;stroke-width:0.5;" width="71" x="381" y="415.7734"/><text fill="#000000" font-family="sans-serif" font-size="14" lengthAdjust="spacing" textLength="57" x="388" y="437.3066">Keycloak</text><polygon fill="#181818" points="218.5,110.9609,228.5,114.9609,218.5,118.9609,222.5,114.9609" style="stroke:#181818;stroke-width:1.0;"/><line style="stroke:#181818;stroke-width:1.0;" x1="22.5" x2="224.5" y1="114.9609" y2="114.9609"/><text fill="#000000" font-family="sans-serif" font-size="13" lengthAdjust="spacing" textLength="184" x="29.5" y="110.1045">Create UserRequest [http/https]</text><line style="stroke:#181818;stroke-width:1.0;stroke-dasharray:2.0,2.0;" x1="230.5" x2="272.5" y1="145.3125" y2="145.3125"/><line style="stroke:#181818;stroke-width:1.0;stroke-dasharray:2.0,2.0;" x1="272.5" x2="272.5" y1="145.3125" y2="158.3125"/><line style="stroke:#181818;stroke-width:1.0;stroke-dasharray:2.0,2.0;" x1="231.5" x2="272.5" y1="158.3125" y2="158.3125"/><polygon fill="#181818" points="241.5,154.3125,231.5,158.3125,241.5,162.3125,237.5,158.3125" style="stroke:#181818;stroke-width:1.0;"/><text fill="#000000" font-family="sans-serif" font-size="13" lengthAdjust="spacing" textLength="99" x="237.5" y="140.4561">Validate Request</text><line style="stroke:#181818;stroke-width:1.0;stroke-dasharray:2.0,2.0;" x1="230.5" x2="272.5" y1="188.6641" y2="188.6641"/><line style="stroke:#181818;stroke-width:1.0;stroke-dasharray:2.0,2.0;" x1="272.5" x2="272.5" y1="188.6641" y2="201.6641"/><line style="stroke:#181818;stroke-width:1.0;stroke-dasharray:2.0,2.0;" x1="231.5" x2="272.5" y1="201.6641" y2="201.6641"/><polygon fill="#181818" points="241.5,197.6641,231.5,201.6641,241.5,205.6641,237.5,201.6641" style="stroke:#181818;stroke-width:1.0;"/><text fill="#000000" font-family="sans-serif" font-size="13" lengthAdjust="spacing" textLength="77" x="237.5" y="183.8076">persist Entity</text><polygon fill="#181818" points="218.5,228.0156,228.5,232.0156,218.5,236.0156,222.5,232.0156" style="stroke:#181818;stroke-width:1.0;"/><line style="stroke:#181818;stroke-width:1.0;" x1="72.5" x2="224.5" y1="232.0156" y2="232.0156"/><text fill="#000000" font-family="sans-serif" font-size="13" lengthAdjust="spacing" textLength="107" x="79.5" y="227.1592">List UserRequests</text><path d="M145.5,247.0156 L480.5,247.0156 L480.5,255.3672 L470.5,265.3672 L145.5,265.3672 L145.5,247.0156 " fill="#EEEEEE" style="stroke:#000000;stroke-width:1.5;"/><rect fill="none" height="79.0547" style="stroke:#000000;stroke-width:1.5;" width="340" x="145.5" y="247.0156"/><text fill="#000000" font-family="sans-serif" font-size="13" font-weight="bold" lengthAdjust="spacing" textLength="290" x="160.5" y="261.5107">send requests (only, if Admin accepts request)</text><polygon fill="#181818" points="404.5,283.7188,414.5,287.7188,404.5,291.7188,408.5,287.7188" style="stroke:#181818;stroke-width:1.0;"/><line style="stroke:#181818;stroke-width:1.0;" x1="230.5" x2="410.5" y1="287.7188" y2="287.7188"/><text fill="#000000" font-family="sans-serif" font-size="13" lengthAdjust="spacing" textLength="139" x="237.5" y="282.8623">CRUD Permission [http]</text><polygon fill="#181818" points="241.5,314.0703,231.5,318.0703,241.5,322.0703,237.5,318.0703" style="stroke:#181818;stroke-width:1.0;"/><line style="stroke:#181818;stroke-width:1.0;" x1="235.5" x2="415.5" y1="318.0703" y2="318.0703"/><text fill="#000000" font-family="sans-serif" font-size="13" lengthAdjust="spacing" textLength="92" x="247.5" y="313.2139">Response [http]</text><line style="stroke:#181818;stroke-width:1.0;stroke-dasharray:2.0,2.0;" x1="230.5" x2="272.5" y1="355.4219" y2="355.4219"/><line style="stroke:#181818;stroke-width:1.0;stroke-dasharray:2.0,2.0;" x1="272.5" x2="272.5" y1="355.4219" y2="368.4219"/><line style="stroke:#181818;stroke-width:1.0;stroke-dasharray:2.0,2.0;" x1="231.5" x2="272.5" y1="368.4219" y2="368.4219"/><polygon fill="#181818" points="241.5,364.4219,231.5,368.4219,241.5,372.4219,237.5,368.4219" style="stroke:#181818;stroke-width:1.0;"/><text fill="#000000" font-family="sans-serif" font-size="13" lengthAdjust="spacing" textLength="172" x="237.5" y="350.5654">persist status of UserRequest</text><polygon fill="#181818" points="33.5,394.7734,23.5,398.7734,33.5,402.7734,29.5,398.7734" style="stroke:#181818;stroke-width:1.0;"/><line style="stroke:#181818;stroke-width:1.0;" x1="27.5" x2="229.5" y1="398.7734" y2="398.7734"/><text fill="#000000" font-family="sans-serif" font-size="13" lengthAdjust="spacing" textLength="125" x="39.5" y="393.917">Response [http/https]</text><!--SRC=[dP4nQyD038Lt_GgD3JHqpn08QQSM4Wp94Z88Mt6FsdSNIHwSNvyxnu5Gug6zuJZ4UzAdTrHQ4Dmf2z3mN5Mjyv0BE5_YHchoxaBcWc_9KysomBKm6G-cWiyTg-7Xsoo-vKkFyCI4ywbcUsfSbTkDhVxcZYpgqlmFRyvwW85-4lmhIn-m5Q2Mq4LKzXNAMCINu9l-5Ttf5WPIMN9CzL4m0qpdAUOIFxalcq0_AQLYzuvRbjQf9iqjekFWlOicGGlM6BpotPJmu7_1g95rYk7qk3TCm6V9x-7Zfru1]--></g></svg>