<?xml version="1.0" encoding="us-ascii" standalone="no"?><svg xmlns="http://www.w3.org/2000/svg" xmlns:xlink="http://www.w3.org/1999/xlink" contentStyleType="text/css" height="425px" preserveAspectRatio="none" style="width:438px;height:425px;background:#FFFFFF;" version="1.1" viewBox="0 0 438 425" width="438px" zoomAndPan="magnify"><defs/><g><rect fill="none" height="79.0547" style="stroke:#000000;stroke-width:1.5;" width="293.5" x="138.5" y="216.6641"/><line style="stroke:#181818;stroke-width:0.5;stroke-dasharray:5.0,5.0;" x1="27" x2="27" y1="82.6094" y2="343.0703"/><line style="stroke:#181818;stroke-width:0.5;stroke-dasharray:5.0,5.0;" x1="223.5" x2="223.5" y1="82.6094" y2="343.0703"/><line style="stroke:#181818;stroke-width:0.5;stroke-dasharray:5.0,5.0;" x1="386" x2="386" y1="82.6094" y2="343.0703"/><text fill="#000000" font-family="sans-serif" font-size="14" lengthAdjust="spacing" textLength="39" x="5" y="79.5332">Admin</text><ellipse cx="27.5" cy="13.5" fill="#E2E2F0" rx="8" ry="8" style="stroke:#181818;stroke-width:0.5;"/><path d="M27.5,21.5 L27.5,48.5 M14.5,29.5 L40.5,29.5 M27.5,48.5 L14.5,63.5 M27.5,48.5 L40.5,63.5 " fill="none" style="stroke:#181818;stroke-width:0.5;"/><text fill="#000000" font-family="sans-serif" font-size="14" lengthAdjust="spacing" textLength="39" x="5" y="356.6035">Admin</text><ellipse cx="27.5" cy="368.1797" fill="#E2E2F0" rx="8" ry="8" style="stroke:#181818;stroke-width:0.5;"/><path d="M27.5,376.1797 L27.5,403.1797 M14.5,384.1797 L40.5,384.1797 M27.5,403.1797 L14.5,418.1797 M27.5,403.1797 L40.5,418.1797 " fill="none" style="stroke:#181818;stroke-width:0.5;"/><rect fill="#E2E2F0" height="31.6094" rx="2.5" ry="2.5" style="stroke:#181818;stroke-width:0.5;" width="150" x="148.5" y="50"/><text fill="#000000" font-family="sans-serif" font-size="14" lengthAdjust="spacing" textLength="136" x="155.5" y="71.5332">Organizationmanager</text><rect fill="#E2E2F0" height="31.6094" rx="2.5" ry="2.5" style="stroke:#181818;stroke-width:0.5;" width="150" x="148.5" y="342.0703"/><text fill="#000000" font-family="sans-serif" font-size="14" lengthAdjust="spacing" textLength="136" x="155.5" y="363.6035">Organizationmanager</text><rect fill="#E2E2F0" height="31.6094" rx="2.5" ry="2.5" style="stroke:#181818;stroke-width:0.5;" width="71" x="351" y="50"/><text fill="#000000" font-family="sans-serif" font-size="14" lengthAdjust="spacing" textLength="57" x="358" y="71.5332">Keycloak</text><rect fill="#E2E2F0" height="31.6094" rx="2.5" ry="2.5" style="stroke:#181818;stroke-width:0.5;" width="71" x="351" y="342.0703"/><text fill="#000000" font-family="sans-serif" font-size="14" lengthAdjust="spacing" textLength="57" x="358" y="363.6035">Keycloak</text><polygon fill="#181818" points="211.5,110.9609,221.5,114.9609,211.5,118.9609,215.5,114.9609" style="stroke:#181818;stroke-width:1.0;"/><line style="stroke:#181818;stroke-width:1.0;" x1="27.5" x2="217.5" y1="114.9609" y2="114.9609"/><text fill="#000000" font-family="sans-serif" font-size="13" lengthAdjust="spacing" textLength="172" x="34.5" y="110.1045">CRUD Permission [http/https]</text><line style="stroke:#181818;stroke-width:1.0;stroke-dasharray:2.0,2.0;" x1="223.5" x2="265.5" y1="145.3125" y2="145.3125"/><line style="stroke:#181818;stroke-width:1.0;stroke-dasharray:2.0,2.0;" x1="265.5" x2="265.5" y1="145.3125" y2="158.3125"/><line style="stroke:#181818;stroke-width:1.0;stroke-dasharray:2.0,2.0;" x1="224.5" x2="265.5" y1="158.3125" y2="158.3125"/><polygon fill="#181818" points="234.5,154.3125,224.5,158.3125,234.5,162.3125,230.5,158.3125" style="stroke:#181818;stroke-width:1.0;"/><text fill="#000000" font-family="sans-serif" font-size="13" lengthAdjust="spacing" textLength="99" x="230.5" y="140.4561">Validate Request</text><line style="stroke:#181818;stroke-width:1.0;stroke-dasharray:2.0,2.0;" x1="223.5" x2="265.5" y1="188.6641" y2="188.6641"/><line style="stroke:#181818;stroke-width:1.0;stroke-dasharray:2.0,2.0;" x1="265.5" x2="265.5" y1="188.6641" y2="201.6641"/><line style="stroke:#181818;stroke-width:1.0;stroke-dasharray:2.0,2.0;" x1="224.5" x2="265.5" y1="201.6641" y2="201.6641"/><polygon fill="#181818" points="234.5,197.6641,224.5,201.6641,234.5,205.6641,230.5,201.6641" style="stroke:#181818;stroke-width:1.0;"/><text fill="#000000" font-family="sans-serif" font-size="13" lengthAdjust="spacing" textLength="77" x="230.5" y="183.8076">persist Entity</text><path d="M138.5,216.6641 L270.5,216.6641 L270.5,225.0156 L260.5,235.0156 L138.5,235.0156 L138.5,216.6641 " fill="#EEEEEE" style="stroke:#000000;stroke-width:1.5;"/><rect fill="none" height="79.0547" style="stroke:#000000;stroke-width:1.5;" width="293.5" x="138.5" y="216.6641"/><text fill="#000000" font-family="sans-serif" font-size="13" font-weight="bold" lengthAdjust="spacing" textLength="87" x="153.5" y="231.1592">send requests</text><polygon fill="#181818" points="374.5,253.3672,384.5,257.3672,374.5,261.3672,378.5,257.3672" style="stroke:#181818;stroke-width:1.0;"/><line style="stroke:#181818;stroke-width:1.0;" x1="223.5" x2="380.5" y1="257.3672" y2="257.3672"/><text fill="#000000" font-family="sans-serif" font-size="13" lengthAdjust="spacing" textLength="139" x="230.5" y="252.5107">CRUD Permission [http]</text><polygon fill="#181818" points="234.5,283.7188,224.5,287.7188,234.5,291.7188,230.5,287.7188" style="stroke:#181818;stroke-width:1.0;"/><line style="stroke:#181818;stroke-width:1.0;" x1="228.5" x2="385.5" y1="287.7188" y2="287.7188"/><text fill="#000000" font-family="sans-serif" font-size="13" lengthAdjust="spacing" textLength="92" x="240.5" y="282.8623">Response [http]</text><polygon fill="#181818" points="38.5,321.0703,28.5,325.0703,38.5,329.0703,34.5,325.0703" style="stroke:#181818;stroke-width:1.0;"/><line style="stroke:#181818;stroke-width:1.0;" x1="32.5" x2="222.5" y1="325.0703" y2="325.0703"/><text fill="#000000" font-family="sans-serif" font-size="13" lengthAdjust="spacing" textLength="125" x="44.5" y="320.2139">Response [http/https]</text><!--SRC=[bP0n3u9038Nt-nNz0yJTWSIeauE6H1V3q4235w5tjcN0No-YB8ORxF26fjzxwSFAWi2cxZoxII7BuIWDid-Y-S0TCZOaQzWMvnsSI3glEkxXUZEBgxTewHO8o59E5snzZKPGqACdjV_eIA9U3VPitWRd6Wbz12MkGJv-wc2SHTCS3ZHKRS1xug5oOkUZP1a5QGoiD4DZkai4Jgt-4j_UNW00]--></g></svg>